<?xml version="1.0" encoding="UTF-8" standalone="no"?>
<svg width="1440px" height="442px" viewBox="0 0 1440 442" version="1.1" xmlns="http://www.w3.org/2000/svg" xmlns:xlink="http://www.w3.org/1999/xlink" xmlns:sketch="http://www.bohemiancoding.com/sketch/ns">
    <!-- Generator: Sketch 3.5.2 (25235) - http://www.bohemiancoding.com/sketch -->
    <title>Artboard 1</title>
    <desc>Created with Sketch.</desc>
    <defs>
        <filter x="-50%" y="-50%" width="200%" height="200%" filterUnits="objectBoundingBox" id="filter-1">
            <feOffset dx="-5" dy="5" in="SourceAlpha" result="shadowOffsetOuter1"></feOffset>
            <feGaussianBlur stdDeviation="0" in="shadowOffsetOuter1" result="shadowBlurOuter1"></feGaussianBlur>
            <feColorMatrix values="0 0 0 0 0   0 0 0 0 0   0 0 0 0 0  0 0 0 0.028 0" in="shadowBlurOuter1" type="matrix" result="shadowMatrixOuter1"></feColorMatrix>
            <feMerge>
                <feMergeNode in="shadowMatrixOuter1"></feMergeNode>
                <feMergeNode in="SourceGraphic"></feMergeNode>
            </feMerge>
        </filter>
        <rect id="path-2" x="20.3032986" y="28.0673343" width="191.934381" height="244.415175"></rect>
        <filter x="-50%" y="-50%" width="200%" height="200%" filterUnits="objectBoundingBox" id="filter-4">
            <feOffset dx="-4" dy="4" in="SourceAlpha" result="shadowOffsetOuter1"></feOffset>
            <feGaussianBlur stdDeviation="0" in="shadowOffsetOuter1" result="shadowBlurOuter1"></feGaussianBlur>
            <feColorMatrix values="0 0 0 0 0   0 0 0 0 0   0 0 0 0 0  0 0 0 0.028 0" in="shadowBlurOuter1" type="matrix" result="shadowMatrixOuter1"></feColorMatrix>
            <feMerge>
                <feMergeNode in="shadowMatrixOuter1"></feMergeNode>
                <feMergeNode in="SourceGraphic"></feMergeNode>
            </feMerge>
        </filter>
        <filter x="-50%" y="-50%" width="200%" height="200%" filterUnits="objectBoundingBox" id="filter-5">
            <feOffset dx="-4" dy="4" in="SourceAlpha" result="shadowOffsetOuter1"></feOffset>
            <feGaussianBlur stdDeviation="0" in="shadowOffsetOuter1" result="shadowBlurOuter1"></feGaussianBlur>
            <feColorMatrix values="0 0 0 0 0   0 0 0 0 0   0 0 0 0 0  0 0 0 0.028 0" in="shadowBlurOuter1" type="matrix" result="shadowMatrixOuter1"></feColorMatrix>
            <feMerge>
                <feMergeNode in="shadowMatrixOuter1"></feMergeNode>
                <feMergeNode in="SourceGraphic"></feMergeNode>
            </feMerge>
        </filter>
        <filter x="-50%" y="-50%" width="200%" height="200%" filterUnits="objectBoundingBox" id="filter-6">
            <feOffset dx="-3" dy="3" in="SourceAlpha" result="shadowOffsetOuter1"></feOffset>
            <feGaussianBlur stdDeviation="0" in="shadowOffsetOuter1" result="shadowBlurOuter1"></feGaussianBlur>
            <feColorMatrix values="0 0 0 0 0   0 0 0 0 0   0 0 0 0 0  0 0 0 0.028 0" in="shadowBlurOuter1" type="matrix" result="shadowMatrixOuter1"></feColorMatrix>
            <feMerge>
                <feMergeNode in="shadowMatrixOuter1"></feMergeNode>
                <feMergeNode in="SourceGraphic"></feMergeNode>
            </feMerge>
        </filter>
    </defs>
    <g id="Page-1" stroke="none" stroke-width="1" fill="none" fill-rule="evenodd" sketch:type="MSPage">
        <g id="Artboard-1" sketch:type="MSArtboardGroup">
            <g id="cup" sketch:type="MSLayerGroup" transform="translate(1067.000000, 282.000000)">
                <path d="M11.6841529,81.0629927 L2.14922909,90.5979166 C-0.585200127,93.3323458 -0.58157107,97.7591522 2.15103851,100.491762 L14.1807896,112.521513 C16.9056329,115.246356 21.3430246,115.254933 24.0746348,112.523322 L32.1960723,104.401885 C40.3499085,109.498615 49.9493763,112.438202 60.2244898,112.438202 C89.8111728,112.438202 113.795918,88.0653889 113.795918,58 C113.795918,27.9346111 89.8111728,3.56179775 60.2244898,3.56179775 C30.6378068,3.56179775 6.65306122,27.9346111 6.65306122,58 C6.65306122,66.2440527 8.4564235,74.0600927 11.6841529,81.0629927 Z" id="Rectangle-8" fill="#F5F5F5" sketch:type="MSShapeGroup"></path>
                <path d="M4.77050331,104.186572 C0.123466232,99.5199028 0.121080521,91.9561324 4.77312551,87.2844339 L44.9820378,46.9056502 C49.6305231,42.2375264 57.1658226,42.2361362 61.8130699,46.9030169 L68.1100249,53.2265747 C72.757062,57.8932442 72.7594477,65.4570146 68.1074027,70.1287132 L27.8984904,110.507497 C23.2500051,115.175621 15.7147056,115.177011 11.0674583,110.51013 L4.77050331,104.186572 L4.77050331,104.186572 Z" id="Rectangle-8" stroke="#F5F5F5" stroke-width="3" fill="#FFFFFF" sketch:type="MSShapeGroup"></path>
                <ellipse id="Oval-5" stroke="#F5F5F5" stroke-width="3" fill="#FFFFFF" sketch:type="MSShapeGroup" cx="65.4285714" cy="54.4382022" rx="53.5714286" ry="54.4382022"></ellipse>
                <path d="M65.4285714,97.752809 C88.8977072,97.752809 107.923201,78.646938 107.923201,55.0786517 C107.923201,31.5103654 88.8977072,12.4044944 65.4285714,12.4044944 C41.9594356,12.4044944 22.933942,31.5103654 22.933942,55.0786517 C22.933942,78.646938 41.9594356,97.752809 65.4285714,97.752809 Z" id="Oval-6" stroke-opacity="0.04" stroke="#979797" stroke-width="3" fill="#F2F2F2" sketch:type="MSShapeGroup"></path>
            </g>
            <g id="ipad" sketch:type="MSLayerGroup" transform="translate(1363.989442, 274.053889) rotate(-17.000000) translate(-1363.989442, -274.053889) translate(1248.489442, 122.053889)">
                <rect id="ipad-base" stroke-opacity="0.04" stroke="#000000" stroke-width="3" fill="#F2F2F2" filter="url(#filter-1)" sketch:type="MSShapeGroup" x="0.639487644" y="0.911119496" width="230.321242" height="302.47427" rx="8"></rect>
                <ellipse id="homescreen" fill-opacity="0.04" fill="#000000" sketch:type="MSShapeGroup" cx="116.280601" cy="286.983119" rx="7.02199133" ry="7.02370747"></ellipse>
                <ellipse id="homescreen" fill-opacity="0.04" fill="#000000" sketch:type="MSShapeGroup" cx="116.74927" cy="15.9001651" rx="2.80879653" ry="2.80948299"></ellipse>
                <mask id="mask-3" sketch:name="Mask" fill="white">
                    <use xlink:href="#path-2"></use>
                </mask>
                <use id="Mask" stroke-opacity="0.04" stroke="#000000" stroke-width="2" fill="#FFFFFF" sketch:type="MSShapeGroup" xlink:href="#path-2"></use>
            </g>
            <g id="paper" sketch:type="MSLayerGroup" transform="translate(344.650423, 468.675275) rotate(-6.000000) translate(-344.650423, -468.675275) translate(185.150423, 286.675275)">
                <rect id="Rectangle-6" stroke-opacity="0.04" stroke="#000000" stroke-width="3" fill="#F2F2F2" filter="url(#filter-4)" sketch:type="MSShapeGroup" transform="translate(159.500000, 182.000000) rotate(-11.000000) translate(-159.500000, -182.000000) " x="29" y="22" width="261" height="320"></rect>
                <rect id="Rectangle-6" stroke-opacity="0.04" stroke="#000000" stroke-width="3" fill="#FFFFFF" filter="url(#filter-5)" sketch:type="MSShapeGroup" x="29" y="22" width="261" height="320"></rect>
                <g id="texts" transform="translate(55.000000, 55.000000)" fill="#F5F5F5" sketch:type="MSShapeGroup">
                    <path d="M4.04797412,13.6232147 C4.00752069,13.9198731 3.8996465,14.1760743 3.72434831,14.391826 C3.54905012,14.6075776 3.34678601,14.7559046 3.11754992,14.8368114 C2.88831383,14.9177183 2.65233904,14.9177183 2.40961847,14.8368114 C2.1668979,14.7559046 1.96463379,14.5738669 1.80282008,14.2906929 C1.7353977,14.1828171 1.6814606,14.0682008 1.64100717,13.9468405 C1.60055375,13.8254802 1.58032734,13.7041217 1.58032734,13.5827614 L1.58032734,8.26316223 C1.32412229,8.26316223 1.09151857,8.19236979 0.882509187,8.05078279 C0.673499808,7.90919579 0.518430659,7.73390023 0.417297089,7.52489085 C0.316163518,7.31588147 0.279081765,7.09339096 0.306050718,6.85741262 C0.33301967,6.62143429 0.44089386,6.40231484 0.629676525,6.2000477 C0.764521286,6.05171847 0.909477229,5.95395748 1.0645487,5.90676181 C1.21962018,5.85956615 1.38480253,5.82922653 1.56010072,5.81574206 C1.54661625,5.3977233 1.53650304,4.98645295 1.5297608,4.58191866 C1.52301856,4.17738438 1.55335818,3.77285617 1.62078056,3.36832189 C1.70168742,2.73455151 1.89046725,2.19518056 2.18712572,1.75019285 C2.4837842,1.30520514 2.85123066,0.961356155 3.28947613,0.718635585 C3.7277216,0.475915016 4.21652653,0.334330141 4.75590557,0.293876713 C5.29528462,0.253423285 5.85488198,0.334328928 6.43471445,0.536596069 C6.67743502,0.617502925 6.91003874,0.718634979 7.1325326,0.839995263 C7.35502645,0.961355548 7.55391949,1.1164247 7.72921768,1.30520736 C7.85057797,1.44005212 7.93822575,1.59849234 7.99216365,1.78053277 C8.04610155,1.96257319 8.05621476,2.14461089 8.02250357,2.32665132 C7.98879238,2.50869174 7.92137101,2.67724517 7.82023744,2.83231664 C7.71910387,2.98738812 7.57414793,3.10537551 7.38536526,3.18628237 C7.12916021,3.29415818 6.87633008,3.32112673 6.62686727,3.26718882 C6.37740447,3.21325092 6.13131647,3.12560314 5.8885959,3.00424285 C5.74026666,2.95030495 5.59868179,2.89636785 5.46383703,2.84242995 C5.32899227,2.78849204 5.18740739,2.74803922 5.03907815,2.72107027 C4.89074892,2.69410132 4.75590618,2.71432773 4.63454589,2.78175011 C4.51318561,2.84917249 4.40868249,2.94019134 4.32103339,3.05480938 C4.2333843,3.16942743 4.16596293,3.29752803 4.11876726,3.43911503 C4.0715716,3.58070203 4.04797412,3.71891584 4.04797412,3.8537606 C4.03448964,4.16390355 4.03111857,4.47741291 4.03786081,4.7942981 C4.04460305,5.11118329 4.04797412,5.42469265 4.04797412,5.7348356 C4.25024126,5.72135113 4.46598964,5.70786685 4.69522573,5.69438238 C4.92446183,5.6808979 5.15032341,5.67415577 5.37281727,5.67415577 C5.59531112,5.67415577 5.8009463,5.6808979 5.98972896,5.69438238 C6.17851163,5.70786685 6.32683864,5.7348354 6.43471445,5.77528883 C6.65046607,5.85619569 6.82576163,5.98092522 6.96060639,6.14948117 C7.09545115,6.31803712 7.18309893,6.50007482 7.22355236,6.69559972 C7.26400578,6.89112462 7.24715044,7.09001766 7.17298582,7.2922848 C7.09882121,7.49455194 6.96734954,7.6698475 6.77856687,7.81817674 C6.60326868,7.9530215 6.40100457,8.04741142 6.17176848,8.10134932 C5.94253239,8.15528723 5.69981546,8.19236898 5.44361041,8.21259569 C5.18740537,8.23282241 4.9379463,8.23956455 4.69522573,8.23282231 C4.45250516,8.22608007 4.23675678,8.222709 4.04797412,8.222709 L4.04797412,13.6232147 Z M16.6289274,13.2591356 C16.7368032,13.6501854 16.7165768,13.973808 16.5682476,14.2300131 C16.4199183,14.4862181 16.2142831,14.6581426 15.9513359,14.7457917 C15.6883886,14.8334408 15.4018478,14.8233276 15.0917048,14.7154518 C14.7815619,14.607576 14.5118764,14.3918276 14.2826403,14.0682002 C13.905075,14.3513741 13.5376285,14.5502672 13.1802899,14.6648852 C12.8229513,14.7795033 12.415052,14.8435536 11.9565798,14.8570381 C11.2688715,14.884007 10.6553371,14.8064724 10.115958,14.624432 C9.57657897,14.4423916 9.12148473,14.169335 8.75066164,13.8052542 C8.37983854,13.4411733 8.106782,12.9860791 7.93148381,12.4399578 C7.75618562,11.8938365 7.69550639,11.2634467 7.74944429,10.5487695 C7.77641325,10.252111 7.82697927,9.96219913 7.90114389,9.67902514 C7.97530851,9.39585114 8.05958522,9.11942352 8.15397655,8.849734 C8.26185236,8.55307553 8.41355044,8.23619509 8.60907535,7.89908319 C8.80460025,7.56197129 9.00349329,7.2720594 9.20576043,7.02933883 C9.93392214,6.13936341 10.8441106,5.49886041 11.9363532,5.1078106 C12.1251358,5.04038822 12.381337,4.97970899 12.7049645,4.92577109 C13.0285919,4.87183318 13.3555855,4.8482357 13.6859552,4.85497794 C14.0163249,4.86172018 14.3332053,4.90554407 14.636606,4.98645092 C14.9400067,5.06735778 15.1658683,5.20894266 15.3141975,5.4112098 C15.4355578,5.57302351 15.5232056,5.71460838 15.5771435,5.83596867 C15.6310814,5.95732895 15.661421,6.08542955 15.6681633,6.22027432 C15.6749055,6.35511908 15.6749055,6.50007502 15.6681633,6.65514649 C15.661421,6.81021797 15.65805,7.00236887 15.65805,7.23160496 C15.65805,7.60917029 15.6546789,7.97661676 15.6479367,8.33395537 C15.6411944,8.69129399 15.6445655,9.05199831 15.65805,9.41607917 L15.65805,9.89140457 C15.65805,10.0869295 15.6647921,10.2925646 15.6782766,10.5083163 C15.6917611,10.7240679 15.7086164,10.9297031 15.7288431,11.125228 C15.7490698,11.3207529 15.7794094,11.4791931 15.8198629,11.6005534 L16.6289274,13.2591356 Z M12.3408854,12.348938 C12.4892147,12.2545467 12.6577681,12.1500436 12.8465508,12.0354255 C13.0353334,11.9208075 13.2038869,11.7893358 13.3522161,11.6410066 C13.2308558,10.9263294 13.1600634,10.2116629 13.1398367,9.49698562 C13.1196099,8.78230839 13.122981,8.06089974 13.14995,7.33273803 C12.5431485,7.44061384 11.9970354,7.70355718 11.5115943,8.12157594 C11.0261532,8.53959469 10.6890463,9.03177069 10.5002637,9.59811868 C10.4193568,9.82735478 10.3519354,10.0633296 10.2979975,10.3060501 C10.2440596,10.5487707 10.2238332,10.7847455 10.2373177,11.0139816 C10.2508022,11.3241245 10.3317078,11.5836968 10.480037,11.7927062 C10.6283663,12.0017156 10.8070329,12.1601558 11.0160423,12.2680316 C11.2250517,12.3759074 11.4475422,12.4365866 11.6835205,12.4500711 C11.9194988,12.4635556 12.1386183,12.4298449 12.3408854,12.348938 L12.3408854,12.348938 Z M22.9598573,11.62078 C23.2969692,11.4050284 23.6172207,11.3106384 23.9206214,11.3376074 C24.2240221,11.3645764 24.4734811,11.4690795 24.6690061,11.6511199 C24.864531,11.8331603 24.9724051,12.0758773 24.9926319,12.379278 C25.0128586,12.6826787 24.9083555,13.0029302 24.6791194,13.3400421 C24.5307901,13.5692782 24.3184128,13.7782844 24.041981,13.9670671 C23.7655493,14.1558498 23.4992349,14.3041768 23.2430298,14.4120526 C22.6497129,14.6817421 22.0496627,14.8031006 21.4428613,14.7761316 C20.8360599,14.7491627 20.2730914,14.6008356 19.7539391,14.3311461 C19.2347868,14.0614566 18.7864347,13.687268 18.4088693,13.2085691 C18.031304,12.7298702 17.7751028,12.1736439 17.640258,11.5398735 C17.3705685,10.3262707 17.4245056,9.159881 17.8020709,8.04066948 C17.9504002,7.6361352 18.1290668,7.24509126 18.3380762,6.86752593 C18.5470856,6.4899606 18.7999157,6.14611162 19.0965742,5.83596867 C19.3932326,5.52582572 19.7235974,5.25276917 20.0876782,5.01679084 C20.4517591,4.78081251 20.8495451,4.62237229 21.2810484,4.54146544 C21.5777069,4.48752753 21.9552665,4.4908986 22.4137387,4.55157874 C22.8722109,4.61225889 23.320563,4.73024628 23.7588085,4.90554447 C24.1970539,5.08084266 24.5813557,5.31007532 24.9117254,5.59324931 C25.2420951,5.87642331 25.4275038,6.21353016 25.4679573,6.60457996 C25.4949262,6.82033158 25.4679577,7.01922462 25.3870508,7.20126505 C25.306144,7.38330547 25.1915276,7.53500355 25.0431984,7.65636384 C24.8948692,7.77772412 24.7229447,7.86200083 24.5274198,7.9091965 C24.3318949,7.95639217 24.1330018,7.9530211 23.9307347,7.89908319 C23.6880141,7.83166081 23.4958632,7.74064196 23.3542762,7.62602392 C23.2126892,7.51140587 23.0272804,7.35970779 22.7980443,7.17092513 C22.6901685,7.14395617 22.5890365,7.10013228 22.4946452,7.03945214 C22.4002538,6.978772 22.2991218,6.95517452 22.191246,6.968659 L21.6451274,7.02933883 C21.5507361,7.08327674 21.4630883,7.1304717 21.3821814,7.17092513 C21.3012746,7.21137855 21.2203689,7.25183138 21.1394621,7.2922848 C20.6809899,7.75075699 20.3438831,8.25978833 20.1281314,8.81939408 C19.9123798,9.37899984 19.8584427,9.98242109 19.9663185,10.6296759 C20.0337409,11.0476947 20.1652126,11.3915437 20.3607375,11.6612332 C20.5562624,11.9309227 20.785495,12.1163315 21.0484423,12.2174651 C21.3113896,12.3185986 21.6013015,12.3287118 21.9181867,12.247805 C22.2350719,12.1668981 22.5485812,11.9848604 22.8587242,11.7016864 L22.9598573,11.62078 Z M33.7810952,11.4387405 C34.1047226,11.3578336 34.3912634,11.3544625 34.6407262,11.4286272 C34.8901891,11.5027918 35.08234,11.6275213 35.2171847,11.8028195 C35.3520295,11.9781177 35.4127087,12.1938661 35.3992242,12.4500711 C35.3857398,12.7062762 35.2711234,12.9759616 35.0553718,13.2591356 C34.8800736,13.4883717 34.6373567,13.6838937 34.3272137,13.8457074 C34.0170708,14.0075211 33.7271589,14.1356217 33.4574694,14.2300131 C32.7967301,14.4727336 32.1697113,14.641287 31.5763944,14.7356784 C30.9830774,14.8300697 30.4268511,14.8300697 29.9076988,14.7356784 C29.3885465,14.641287 28.9031126,14.4457651 28.4513827,14.1491066 C27.9996527,13.8524481 27.5782692,13.4344356 27.1872194,12.8950566 C26.9175298,12.5309757 26.7186368,12.1163343 26.5905343,11.6511199 C26.4624318,11.1859055 26.3916393,10.7105848 26.3781548,10.2251437 C26.3646704,9.73970255 26.4051232,9.26101083 26.4995145,8.78905416 C26.5939059,8.3170975 26.7287486,7.89234288 26.9040468,7.51477755 C27.1332829,7.04282088 27.4973583,6.61132412 27.9962839,6.22027432 C28.4952095,5.82922451 29.0480647,5.51908621 29.6548661,5.28985012 C30.2616676,5.06061403 30.8819442,4.92914236 31.5157145,4.89543117 C32.1494849,4.86171998 32.7090823,4.95948096 33.1945234,5.18871705 C33.5990577,5.37749972 33.9462778,5.65055626 34.236194,6.00789488 C34.5261102,6.3652335 34.7250033,6.75290637 34.8328791,7.17092513 C34.9407549,7.58894388 34.9508681,8.01032744 34.863219,8.43508844 C34.7755699,8.85984943 34.5564504,9.24752231 34.2058541,9.59811868 C33.8687422,9.93523059 33.4979246,10.2082871 33.0933904,10.4172965 C32.6888561,10.6263059 32.2708436,10.8083436 31.8393404,10.9634151 C31.4078371,11.1184865 30.9662271,11.2499582 30.5144972,11.357834 C30.0627673,11.4657098 29.6278994,11.5870683 29.2098807,11.721913 C29.4930547,12.0455405 29.8166772,12.2511756 30.1807581,12.3388247 C30.5448389,12.4264738 30.9257697,12.4433292 31.3235617,12.3893913 C31.7213538,12.3354534 32.1225109,12.2242081 32.5270452,12.0556522 C32.9315795,11.8870962 33.3091391,11.7016874 33.6597355,11.4994203 L33.7810952,11.4387405 Z M29.6953194,7.95976303 C29.3851764,8.13506122 29.1559438,8.35418067 29.0076145,8.61712795 C28.8592853,8.88007524 28.7514111,9.2475217 28.6839887,9.71947836 C29.0345851,9.61160255 29.4290001,9.49698623 29.8672456,9.37562594 C30.3054911,9.25426566 30.7201325,9.12616505 31.1111823,8.99132029 C31.5022321,8.85647553 31.8325968,8.70814852 32.1022863,8.54633481 C32.3719758,8.3845211 32.5068186,8.20922554 32.5068186,8.02044287 C32.5068186,7.91256706 32.4899632,7.80806394 32.456252,7.70693037 C32.4225409,7.6057968 32.3517484,7.53500436 32.2438726,7.49455093 C31.8663073,7.35970617 31.4752633,7.33273762 31.0707291,7.41364448 C30.6661948,7.49455134 30.3290879,7.60916767 30.0593984,7.7574969 L29.6953194,7.95976303 Z M40.6985968,14.6749985 C40.307547,14.688483 39.9333584,14.6615145 39.5760198,14.5940921 C39.2186812,14.5266697 38.864719,14.4120534 38.5141226,14.2502397 C38.3388244,14.344631 38.1669,14.391826 37.998344,14.391826 C37.8297881,14.391826 37.6747189,14.3648574 37.5331319,14.3109195 C37.3915449,14.2569816 37.2701864,14.1929313 37.1690529,14.1187667 C37.0679193,14.0446021 36.9971269,13.9872939 36.9566734,13.9468405 C36.8083442,13.7310889 36.7206964,13.4883719 36.6937275,13.2186824 C36.6667585,12.9489929 36.7544063,12.6927917 36.9566734,12.4500711 L36.9566734,2.05359204 C36.9566734,1.74344909 37.0645476,1.48387682 37.2802992,1.27486744 C37.4960509,1.06585806 37.7455099,0.934386394 38.0286839,0.880448489 C38.3118579,0.826510585 38.5849145,0.873705543 38.8478617,1.02203478 C39.110809,1.17036402 39.2894757,1.44004949 39.383867,1.8310993 C39.4378049,2.07381987 39.4816288,2.31316573 39.51534,2.54914406 C39.5490512,2.78512239 39.5692776,3.05817894 39.5760198,3.36832189 C39.5827621,3.67846484 39.5827621,4.03579809 39.5760198,4.44033237 C39.5692776,4.84486666 39.5524222,5.34378479 39.5254533,5.93710173 C39.6468136,5.86967935 39.7715431,5.80562905 39.8996456,5.74494891 C40.0277481,5.68426877 40.1592198,5.62021847 40.2940646,5.55279609 C40.6716299,5.3774979 41.0761581,5.26962371 41.5076614,5.22917028 C41.9391646,5.18871685 42.3605481,5.21231433 42.7718247,5.29996343 C43.1831012,5.38761252 43.567403,5.54942381 43.9247416,5.78540214 C44.2820802,6.02138047 44.5753632,6.3281477 44.8045993,6.70571303 C45.1282267,7.24509207 45.3473461,7.87548187 45.4619642,8.59690134 C45.5765822,9.31832081 45.5765822,10.0329873 45.4619642,10.7409223 C45.3473461,11.4488573 45.1113714,12.1062157 44.7540327,12.7130171 C44.3966941,13.3198185 43.8944049,13.7715417 43.2471501,14.0682002 C42.8426158,14.2569828 42.4279744,14.4019388 42.0032134,14.5030723 C41.5784524,14.6042059 41.1435845,14.6615141 40.6985968,14.6749985 L40.6985968,14.6749985 Z M39.4243202,9.49698562 L39.4243202,11.9241792 C39.4512892,11.9511481 39.4782577,11.9713745 39.5052267,11.984859 C39.5321956,11.9983435 39.5591642,12.0185699 39.5861331,12.0455389 C40.799736,12.4500731 41.8515093,12.1736455 42.7414847,11.2162477 C42.9437519,10.6768687 43.0415129,10.1678373 43.0347706,9.68913844 C43.0280284,9.21043954 42.9370095,8.69466607 42.7617114,8.14180255 C42.694289,7.97998884 42.5830437,7.87548571 42.4279722,7.82829005 C42.2729008,7.78109438 42.134687,7.72378622 42.0133267,7.65636384 C41.7975751,7.61591041 41.5649713,7.65636323 41.3155085,7.77772352 C41.0660457,7.8990838 40.8266999,8.05078188 40.5974638,8.23282231 C40.3682277,8.41486273 40.1592214,8.61375577 39.9704388,8.82950739 C39.7816561,9.04525901 39.6333291,9.2272967 39.5254533,9.37562594 L39.4243202,9.49698562 Z M46.8272606,9.3149461 C46.9216519,8.9238963 47.0531236,8.53959449 47.2216795,8.16202916 C47.3902355,7.78446383 47.5958706,7.42375951 47.8385912,7.07990537 C48.0813118,6.73605123 48.3543683,6.42254186 48.657769,6.13936786 C48.9611698,5.85619387 49.2881634,5.62696121 49.6387598,5.45166302 C50.2590457,5.1280356 50.8826933,4.96285324 51.5097215,4.956111 C52.1367496,4.94936877 52.7199445,5.0740983 53.2593235,5.33030334 C53.7987025,5.58650839 54.2571678,5.96743913 54.6347332,6.47310698 C55.0122985,6.97877483 55.2617576,7.58219608 55.3831179,8.28338884 C55.4505402,8.74186103 55.487622,9.17672886 55.4943642,9.58800538 C55.5011065,9.9992819 55.4572826,10.4274076 55.3628912,10.8723953 C55.2280465,11.5061657 54.9549899,12.1365555 54.5437134,12.7635836 C54.1324369,13.3906118 53.6402609,13.9164984 53.0671707,14.3412594 C52.4940804,14.7660204 51.8670617,15.0458191 51.1860957,15.1806639 C50.5051296,15.3155086 49.8208027,15.2076344 49.1330944,14.8570381 C48.8229515,14.7087088 48.5431528,14.5367843 48.29369,14.3412594 C48.0442272,14.1457345 47.8183656,13.9131308 47.6160985,13.6434413 C47.3868624,13.3467828 47.2081958,13.0366445 47.0800932,12.7130171 C46.9519907,12.3893897 46.8474876,12.0522828 46.7665807,11.7016864 C46.6721894,11.3241211 46.6384787,10.9431904 46.6654477,10.5588828 C46.6924166,10.1745752 46.7396116,9.80038663 46.807034,9.43630578 L46.8272606,9.3149461 Z M49.2544541,9.73970497 C49.2140007,9.95545659 49.18029,10.1678339 49.1533211,10.3768433 C49.1263521,10.5858527 49.1263521,10.79823 49.1533211,11.0139816 C49.1937745,11.3241245 49.2780512,11.6072943 49.4061537,11.8634993 C49.5342562,12.1197044 49.7028097,12.3219685 49.911819,12.4702977 C50.1208284,12.618627 50.3601743,12.6961615 50.6298638,12.7029038 C50.8995533,12.709646 51.1894652,12.6253693 51.4996082,12.4500711 C51.890658,12.220835 52.2277648,11.8668728 52.5109388,11.3881739 C52.7941128,10.909475 52.9694084,10.4105569 53.0368308,9.89140457 C53.1042531,9.37225224 53.050316,8.88007625 52.8750178,8.41486182 C52.6997197,7.9496474 52.3558707,7.61591162 51.8434606,7.41364448 C51.5063487,7.41364448 51.1962104,7.47769478 50.9130364,7.6057973 C50.6298624,7.73389983 50.3837744,7.90245325 50.174765,8.11146263 C49.9657556,8.32047201 49.7837179,8.56656001 49.6286465,8.849734 C49.473575,9.132908 49.3488455,9.42956202 49.2544541,9.73970497 L49.2544541,9.73970497 Z M56.8596606,9.3149461 C56.9540519,8.9238963 57.0855236,8.53959449 57.2540796,8.16202916 C57.4226355,7.78446383 57.6282707,7.42375951 57.8709913,7.07990537 C58.1137118,6.73605123 58.3867684,6.42254186 58.6901691,6.13936786 C58.9935698,5.85619387 59.3205634,5.62696121 59.6711598,5.45166302 C60.2914457,5.1280356 60.9150934,4.96285324 61.5421215,4.956111 C62.1691496,4.94936877 62.7523445,5.0740983 63.2917235,5.33030334 C63.8311026,5.58650839 64.2895679,5.96743913 64.6671332,6.47310698 C65.0446985,6.97877483 65.2941576,7.58219608 65.4155179,8.28338884 C65.4829403,8.74186103 65.520022,9.17672886 65.5267643,9.58800538 C65.5335065,9.9992819 65.4896826,10.4274076 65.3952913,10.8723953 C65.2604465,11.5061657 64.98739,12.1365555 64.5761135,12.7635836 C64.1648369,13.3906118 63.6726609,13.9164984 63.0995707,14.3412594 C62.5264805,14.7660204 61.8994617,15.0458191 61.2184957,15.1806639 C60.5375297,15.3155086 59.8532028,15.2076344 59.1654945,14.8570381 C58.8553515,14.7087088 58.5755529,14.5367843 58.32609,14.3412594 C58.0766272,14.1457345 57.8507657,13.9131308 57.6484985,13.6434413 C57.4192624,13.3467828 57.2405958,13.0366445 57.1124933,12.7130171 C56.9843907,12.3893897 56.8798876,12.0522828 56.7989808,11.7016864 C56.7045894,11.3241211 56.6708788,10.9431904 56.6978477,10.5588828 C56.7248167,10.1745752 56.7720116,9.80038663 56.839434,9.43630578 L56.8596606,9.3149461 Z M59.2868542,9.73970497 C59.2464007,9.95545659 59.2126901,10.1678339 59.1857211,10.3768433 C59.1587521,10.5858527 59.1587521,10.79823 59.1857211,11.0139816 C59.2261745,11.3241245 59.3104512,11.6072943 59.4385538,11.8634993 C59.5666563,12.1197044 59.7352097,12.3219685 59.9442191,12.4702977 C60.1532285,12.618627 60.3925743,12.6961615 60.6622638,12.7029038 C60.9319534,12.709646 61.2218653,12.6253693 61.5320082,12.4500711 C61.923058,12.220835 62.2601649,11.8668728 62.5433389,11.3881739 C62.8265129,10.909475 63.0018084,10.4105569 63.0692308,9.89140457 C63.1366532,9.37225224 63.0827161,8.88007625 62.9074179,8.41486182 C62.7321197,7.9496474 62.3882707,7.61591162 61.8758606,7.41364448 C61.5387487,7.41364448 61.2286104,7.47769478 60.9454364,7.6057973 C60.6622624,7.73389983 60.4161744,7.90245325 60.2071651,8.11146263 C59.9981557,8.32047201 59.816118,8.56656001 59.6610465,8.849734 C59.505975,9.132908 59.3812455,9.42956202 59.2868542,9.73970497 L59.2868542,9.73970497 Z M69.2181211,13.501855 C69.1372143,13.9468427 68.9619187,14.2670942 68.6922292,14.4626191 C68.4225397,14.658144 68.142741,14.7491629 67.8528248,14.7356784 C67.5629085,14.7221939 67.3067073,14.6042065 67.0842135,14.3817127 C66.8617196,14.1592188 66.7504744,13.8524516 66.7504744,13.4614018 L66.7504744,1.93223236 C66.7504744,1.72996522 66.8077825,1.54455646 66.9224006,1.37600051 C67.0370186,1.20744456 67.1819746,1.06923075 67.3572727,0.961354941 C67.5325709,0.853479133 67.7247218,0.782686695 67.9337312,0.748975505 C68.1427406,0.715264315 68.3348915,0.722006452 68.5101897,0.769202118 C68.6854879,0.816397784 68.837186,0.917529838 68.9652885,1.07260131 C69.093391,1.22767279 69.1641834,1.4400501 69.1776679,1.70973962 C69.2181213,2.76152876 69.2383477,3.70542792 69.2383477,4.54146544 C69.2383477,5.37750296 69.2316056,6.22027007 69.2181211,7.06979206 C69.5282641,6.84055597 69.821547,6.60121011 70.0979788,6.3517473 C70.3744106,6.10228449 70.6474671,5.84271222 70.9171566,5.5730227 C71.1598772,5.31681765 71.395852,5.03027684 71.6250881,4.71339165 C71.8543242,4.39650646 72.1442361,4.17738701 72.4948324,4.05602673 C72.7510375,3.97511987 72.9903833,3.9616356 73.2128772,4.0155735 C73.4353711,4.06951141 73.6241509,4.17401453 73.7792224,4.329086 C73.9342938,4.48415748 74.038797,4.67293731 74.0927349,4.89543117 C74.1466728,5.11792502 74.1331885,5.35727088 74.0522816,5.61347593 C73.9848593,5.80225859 73.8331612,6.03823338 73.5971828,6.32140738 C73.3612045,6.60458138 73.0982612,6.89449327 72.8083449,7.19115174 C72.5184287,7.48781021 72.2318879,7.76086676 71.9487139,8.01032956 C71.6655399,8.25979237 71.4363072,8.45194327 71.261009,8.58678803 C71.7329657,9.09919813 72.1981732,9.61834267 72.6566453,10.1442372 C73.1151175,10.6701318 73.580325,11.1960185 74.0522816,11.721913 C74.2545488,11.9511491 74.4466997,12.1567843 74.6287401,12.3388247 C74.8107805,12.5208652 74.9692208,12.7399846 75.1040655,12.9961897 C75.2119413,13.2119413 75.245652,13.4344318 75.2051986,13.6636679 C75.1647451,13.892904 75.0737263,14.091797 74.9321393,14.260353 C74.7905523,14.4289089 74.6152567,14.5536385 74.4062474,14.6345453 C74.197238,14.7154522 73.9713764,14.7221943 73.7286558,14.6547719 C73.4994197,14.5873495 73.2769292,14.46262 73.0611776,14.2805796 C72.845426,14.0985392 72.6397908,13.8996461 72.4442659,13.6838945 C72.248741,13.4681429 72.0633322,13.2456524 71.888034,13.0164163 C71.7127359,12.7871802 71.5509246,12.5916582 71.4025953,12.4298445 C71.0385145,12.0118257 70.6778102,11.5971843 70.3204715,11.1859078 C69.9631329,10.7746313 69.5956865,10.3734741 69.2181211,9.98242433 L69.2181211,13.501855 Z" id="facebook"></path>
                    <path d="M1.1960928,34.6112454 C0.926403283,34.543823 0.693799559,34.4292067 0.498274656,34.267393 C0.302749753,34.1055793 0.167907015,33.9167994 0.0937423968,33.7010478 C0.0195777784,33.4852962 0.0195777784,33.2628057 0.0937423968,33.0335696 C0.167907015,32.8043335 0.333089369,32.5953273 0.589294415,32.4065446 C0.805046032,32.2447309 1.04776296,32.1638252 1.31745248,32.1638252 L2.10629039,32.1638252 C2.10629039,32.0694339 2.09954825,31.8637987 2.08606378,31.5469135 C2.0725793,31.2300284 2.06920823,30.8828083 2.07595047,30.505243 C2.08269271,30.1276776 2.10629019,29.7669733 2.14674361,29.4231192 C2.18719704,29.079265 2.26136055,28.8399192 2.36923636,28.7050744 C2.63892588,28.3275091 2.97266166,28.1488425 3.3704537,28.1690692 C3.76824574,28.1892959 4.09523938,28.3814468 4.35144443,28.7455276 C4.40538233,28.81295 4.45594836,28.8938557 4.50314403,28.988247 C4.55033969,29.0826383 4.57393717,29.1702861 4.57393717,29.251193 C4.58742165,29.7366341 4.59079272,30.222068 4.58405048,30.7075091 C4.57730824,31.1929502 4.57393717,31.6783841 4.57393717,32.1638252 L6.1718396,32.1638252 C6.41456017,32.1638252 6.62356641,32.2447309 6.7988646,32.4065446 C6.97416279,32.5683583 7.09889232,32.7571381 7.17305694,32.9728898 C7.24722156,33.1886414 7.26744797,33.4111319 7.23373678,33.640368 C7.20002559,33.8696041 7.09552247,34.0583839 6.92022428,34.2067132 C6.61008133,34.4629182 6.249377,34.5977609 5.83810048,34.6112454 C5.42682396,34.6247299 5.00544041,34.631472 4.57393717,34.631472 C4.57393717,35.3731182 4.5705661,36.1147533 4.56382387,36.8563995 C4.55708163,37.5980456 4.5604527,38.3396807 4.57393717,39.0813269 C4.57393717,39.4049543 4.59079251,39.735319 4.6245037,40.0724309 C4.65821489,40.4095428 4.63461742,40.7331654 4.55371056,41.0433083 C4.48628818,41.2860289 4.37167185,41.4781798 4.20985814,41.6197668 C4.04804443,41.7613538 3.86600673,41.8490016 3.66373959,41.8827128 C3.46147245,41.916424 3.2524662,41.9029397 3.03671459,41.8422596 C2.82096297,41.7815794 2.61869886,41.6703341 2.4299162,41.5085204 C2.33552486,41.4141291 2.26473243,41.2523178 2.21753676,41.0230817 C2.17034109,40.7938456 2.14000148,40.5511287 2.126517,40.2949237 C2.11303253,39.9982652 2.11303253,39.6813847 2.126517,39.3442728 L2.126517,38.292489 C2.126517,37.8609857 2.12314593,37.4126336 2.11640369,36.9474192 C2.10966146,36.4822048 2.10629039,36.0405948 2.10629039,35.6225761 L2.10629039,34.631472 L1.1960928,34.6112454 Z M18.8539259,32.6088107 C19.0561931,32.3391212 19.2887968,32.1537124 19.5517441,32.0525789 C19.8146914,31.9514453 20.0607794,31.9312189 20.2900155,31.991899 C20.5192515,32.0525792 20.7147735,32.190793 20.8765872,32.4065446 C21.0384009,32.6222962 21.1260487,32.9122081 21.1395332,33.276289 C21.1530177,33.4785561 21.068741,33.8426315 20.8867005,34.3685261 C20.7046601,34.8944206 20.4855407,35.5821186 20.2293356,36.4316406 C20.2158511,36.4855785 20.1922537,36.5529999 20.1585425,36.6339067 C20.1248313,36.7148136 20.0776363,36.8496563 20.0169562,37.038439 C19.956276,37.2272216 19.8686283,37.490165 19.7540102,37.8272769 C19.6393922,38.1643888 19.4809519,38.6161119 19.2786848,39.1824599 C19.1842935,39.4656339 19.0663061,39.8027408 18.9247191,40.1937906 C18.7831321,40.5848404 18.6044655,40.9320604 18.3887138,41.2354612 C18.1729622,41.5388619 17.916761,41.7478681 17.6201025,41.8624862 C17.3234441,41.9771042 16.9661108,41.8928275 16.5480921,41.6096535 C16.4132473,41.5152622 16.2649203,41.3231113 16.1031066,41.033195 C15.9412929,40.7432788 15.7862237,40.4297694 15.6378945,40.0926575 C15.4895652,39.7555456 15.3580936,39.4352941 15.2434755,39.1318934 C15.1288575,38.8284927 15.0513229,38.6295997 15.0108695,38.5352083 C14.9164781,38.3194567 14.8086039,38.0801109 14.6872437,37.8171636 C14.5658834,37.5542163 14.451267,37.2879019 14.3433912,37.0182124 L14.2220316,37.3216115 C14.0467334,37.7665993 13.8714378,38.2115803 13.6961396,38.656568 C13.5208414,39.1015557 13.3455459,39.5397946 13.1702477,39.9712978 C13.0758564,40.2005339 12.9882086,40.449993 12.9073017,40.7196825 C12.8263949,40.9893721 12.7117785,41.2253468 12.5634493,41.427614 C12.442089,41.6029122 12.2903909,41.7276417 12.1083505,41.8018063 C11.9263101,41.8759709 11.7409013,41.9063106 11.5521186,41.8928261 C11.363336,41.8793416 11.1846694,41.8287756 11.0161134,41.7411265 C10.8475575,41.6534774 10.7026015,41.5287479 10.5812412,41.3669341 C10.3924586,41.0972446 10.2441315,40.7871063 10.1362557,40.4365099 C10.0283799,40.0859136 9.92050574,39.762291 9.81262993,39.4656325 C9.6643007,39.0476138 9.52945796,38.6194881 9.40809767,38.1812426 C9.28673739,37.7429971 9.15863679,37.3216136 9.02379203,36.9170793 C8.95636965,36.7013277 8.86872187,36.4181579 8.76084606,36.0675615 C8.65297025,35.7169652 8.54846713,35.3562608 8.44733356,34.9854378 C8.34619999,34.6146147 8.26529434,34.2539103 8.2046142,33.903314 C8.14393406,33.5527176 8.12033658,33.2628057 8.13382106,33.0335696 C8.14730553,32.8043335 8.22484011,32.5986983 8.36642711,32.4166579 C8.5080141,32.2346175 8.67993859,32.0997747 8.88220574,32.0121256 C9.08447288,31.9244765 9.29685019,31.8941369 9.51934404,31.9211059 C9.7418379,31.9480748 9.94073094,32.0492069 10.1160291,32.2245051 C10.3722342,32.4941946 10.5273033,32.7807354 10.5812412,33.0841361 C10.6351791,33.3875368 10.6958584,33.7145305 10.7632807,34.0651269 C10.8711566,34.6045059 10.9958861,35.1371347 11.1374731,35.6630293 C11.2790601,36.1889239 11.4307582,36.7148105 11.5925719,37.2407051 C11.6465098,37.1193448 11.707189,36.9710178 11.7746114,36.7957196 C11.8420338,36.6204214 11.949908,36.3574781 12.0982372,36.0068817 C12.2195975,35.7102232 12.3375849,35.4203113 12.4522029,35.1371373 C12.566821,34.8539634 12.6780662,34.5707936 12.785942,34.2876196 C12.8668489,34.0853525 12.9477545,33.8864594 13.0286614,33.6909345 C13.1095683,33.4954096 13.1904739,33.3032587 13.2713808,33.1144761 C13.3657721,32.9122089 13.5039859,32.7470266 13.6860263,32.618924 C13.8680667,32.4908215 14.0669598,32.4099159 14.2827114,32.3762047 C14.498463,32.3424935 14.7074693,32.3627199 14.9097364,32.4368845 C15.1120035,32.5110491 15.2738148,32.6492629 15.3951751,32.8515301 C15.5704733,33.1212196 15.705316,33.4212447 15.7997074,33.7516144 C15.8940987,34.081984 15.9952308,34.3954934 16.1031066,34.6921519 C16.2918892,35.177593 16.477298,35.6663979 16.6593384,36.1585813 C16.8413789,36.6507647 17.0335298,37.1328275 17.2357969,37.6047841 C17.5324554,36.7957156 17.7953987,35.9832881 18.0246348,35.1674773 C18.2538709,34.3516665 18.50333,33.539239 18.7730195,32.7301704 L18.8539259,32.6088107 Z M25.488255,40.7803624 C25.461286,41.0500519 25.3668961,41.2893978 25.2050824,41.4984071 C25.0432687,41.7074165 24.8578599,41.8591146 24.6488506,41.9535059 C24.4398412,42.0478973 24.2139796,42.0681237 23.971259,42.0141858 C23.7285384,41.9602479 23.5127901,41.8119208 23.3240074,41.5692003 C23.2161316,41.4343555 23.138597,41.2826574 23.0914014,41.1141015 C23.0442057,40.9455455 23.0138661,40.77025 23.0003816,40.5882095 C22.9868971,40.4061691 22.9835261,40.2241314 22.9902683,40.042091 C22.9970105,39.8600506 23.0003816,39.6948682 23.0003816,39.546539 C22.9868971,38.7509549 22.9835261,37.9621249 22.9902683,37.1800253 C22.9970105,36.3979256 22.9936395,35.6090956 22.980155,34.8135115 C22.980155,34.4898841 22.9599286,34.1628905 22.9194751,33.8325208 C22.8790217,33.5021511 22.8992481,33.1751575 22.980155,32.8515301 C23.0475774,32.6088095 23.1655648,32.3998033 23.3341207,32.2245051 C23.5026767,32.0492069 23.6914565,31.9278484 23.9004659,31.860426 C24.1094753,31.7930037 24.3252236,31.7862615 24.5477175,31.8401994 C24.7702113,31.8941373 24.9623622,32.0357222 25.124176,32.2649583 C25.3399276,32.5346478 25.4478018,32.8009622 25.4478018,33.0639095 L25.4478018,34.0246736 L25.4478018,35.4000833 C25.4478018,35.8585555 25.4545439,36.3102787 25.4680284,36.7552664 C25.4815129,37.4025212 25.488255,38.0497664 25.488255,38.6970212 L25.488255,40.6387761 L25.488255,40.7803624 Z M22.8183421,29.2714196 C22.87228,28.772494 23.0442045,28.4050475 23.3341207,28.1690692 C23.6240369,27.9330908 23.9308042,27.8184745 24.2544316,27.8252168 C24.578059,27.831959 24.8780841,27.9566885 25.1545159,28.1994091 C25.4309476,28.4421297 25.5759036,28.7859786 25.5893881,29.2309664 C25.616357,29.6894385 25.4983696,30.0434007 25.2354223,30.2928635 C24.972475,30.5423263 24.67245,30.6839112 24.3353381,30.7176224 C23.9982261,30.7513336 23.6813457,30.6603148 23.3846872,30.4445631 C23.0880288,30.2288115 22.9059911,29.8849625 22.8385687,29.4130059 L22.8183421,29.2714196 Z M27.9154485,34.6112454 C27.645759,34.543823 27.4131553,34.4292067 27.2176304,34.267393 C27.0221055,34.1055793 26.8872628,33.9167994 26.8130981,33.7010478 C26.7389335,33.4852962 26.7389335,33.2628057 26.8130981,33.0335696 C26.8872628,32.8043335 27.0524451,32.5953273 27.3086502,32.4065446 C27.5244018,32.2447309 27.7671187,32.1638252 28.0368082,32.1638252 L28.8256461,32.1638252 C28.8256461,32.0694339 28.818904,31.8637987 28.8054195,31.5469135 C28.791935,31.2300284 28.788564,30.8828083 28.7953062,30.505243 C28.8020485,30.1276776 28.8256459,29.7669733 28.8660994,29.4231192 C28.9065528,29.079265 28.9807163,28.8399192 29.0885921,28.7050744 C29.3582816,28.3275091 29.6920174,28.1488425 30.0898094,28.1690692 C30.4876015,28.1892959 30.8145951,28.3814468 31.0708002,28.7455276 C31.1247381,28.81295 31.1753041,28.8938557 31.2224998,28.988247 C31.2696954,29.0826383 31.2932929,29.1702861 31.2932929,29.251193 C31.3067774,29.7366341 31.3101485,30.222068 31.3034062,30.7075091 C31.296664,31.1929502 31.2932929,31.6783841 31.2932929,32.1638252 L32.8911953,32.1638252 C33.1339159,32.1638252 33.3429222,32.2447309 33.5182203,32.4065446 C33.6935185,32.5683583 33.8182481,32.7571381 33.8924127,32.9728898 C33.9665773,33.1886414 33.9868037,33.4111319 33.9530925,33.640368 C33.9193813,33.8696041 33.8148782,34.0583839 33.63958,34.2067132 C33.3294371,34.4629182 32.9687327,34.5977609 32.5574562,34.6112454 C32.1461797,34.6247299 31.7247962,34.631472 31.2932929,34.631472 C31.2932929,35.3731182 31.2899218,36.1147533 31.2831796,36.8563995 C31.2764374,37.5980456 31.2798084,38.3396807 31.2932929,39.0813269 C31.2932929,39.4049543 31.3101483,39.735319 31.3438594,40.0724309 C31.3775706,40.4095428 31.3539732,40.7331654 31.2730663,41.0433083 C31.2056439,41.2860289 31.0910276,41.4781798 30.9292139,41.6197668 C30.7674002,41.7613538 30.5853625,41.8490016 30.3830953,41.8827128 C30.1808282,41.916424 29.9718219,41.9029397 29.7560703,41.8422596 C29.5403187,41.7815794 29.3380546,41.6703341 29.1492719,41.5085204 C29.0548806,41.4141291 28.9840882,41.2523178 28.9368925,41.0230817 C28.8896968,40.7938456 28.8593572,40.5511287 28.8458727,40.2949237 C28.8323883,39.9982652 28.8323883,39.6813847 28.8458727,39.3442728 L28.8458727,38.292489 C28.8458727,37.8609857 28.8425017,37.4126336 28.8357594,36.9474192 C28.8290172,36.4822048 28.8256461,36.0405948 28.8256461,35.6225761 L28.8256461,34.631472 L27.9154485,34.6112454 Z M36.14768,34.6112454 C35.8779905,34.543823 35.6453868,34.4292067 35.4498619,34.267393 C35.254337,34.1055793 35.1194942,33.9167994 35.0453296,33.7010478 C34.971165,33.4852962 34.971165,33.2628057 35.0453296,33.0335696 C35.1194942,32.8043335 35.2846766,32.5953273 35.5408816,32.4065446 C35.7566333,32.2447309 35.9993502,32.1638252 36.2690397,32.1638252 L37.0578776,32.1638252 C37.0578776,32.0694339 37.0511355,31.8637987 37.037651,31.5469135 C37.0241665,31.2300284 37.0207955,30.8828083 37.0275377,30.505243 C37.0342799,30.1276776 37.0578774,29.7669733 37.0983308,29.4231192 C37.1387843,29.079265 37.2129478,28.8399192 37.3208236,28.7050744 C37.5905131,28.3275091 37.9242489,28.1488425 38.3220409,28.1690692 C38.719833,28.1892959 39.0468266,28.3814468 39.3030317,28.7455276 C39.3569696,28.81295 39.4075356,28.8938557 39.4547313,28.988247 C39.5019269,29.0826383 39.5255244,29.1702861 39.5255244,29.251193 C39.5390089,29.7366341 39.5423799,30.222068 39.5356377,30.7075091 C39.5288955,31.1929502 39.5255244,31.6783841 39.5255244,32.1638252 L41.1234268,32.1638252 C41.3661474,32.1638252 41.5751536,32.2447309 41.7504518,32.4065446 C41.92575,32.5683583 42.0504795,32.7571381 42.1246442,32.9728898 C42.1988088,33.1886414 42.2190352,33.4111319 42.185324,33.640368 C42.1516128,33.8696041 42.0471097,34.0583839 41.8718115,34.2067132 C41.5616686,34.4629182 41.2009642,34.5977609 40.7896877,34.6112454 C40.3784112,34.6247299 39.9570276,34.631472 39.5255244,34.631472 C39.5255244,35.3731182 39.5221533,36.1147533 39.5154111,36.8563995 C39.5086689,37.5980456 39.5120399,38.3396807 39.5255244,39.0813269 C39.5255244,39.4049543 39.5423797,39.735319 39.5760909,40.0724309 C39.6098021,40.4095428 39.5862046,40.7331654 39.5052978,41.0433083 C39.4378754,41.2860289 39.3232591,41.4781798 39.1614454,41.6197668 C38.9996317,41.7613538 38.817594,41.8490016 38.6153268,41.8827128 C38.4130597,41.916424 38.2040534,41.9029397 37.9883018,41.8422596 C37.7725502,41.7815794 37.5702861,41.6703341 37.3815034,41.5085204 C37.2871121,41.4141291 37.2163197,41.2523178 37.169124,41.0230817 C37.1219283,40.7938456 37.0915887,40.5511287 37.0781042,40.2949237 C37.0646198,39.9982652 37.0646198,39.6813847 37.0781042,39.3442728 L37.0781042,38.292489 C37.0781042,37.8609857 37.0747332,37.4126336 37.0679909,36.9474192 C37.0612487,36.4822048 37.0578776,36.0405948 37.0578776,35.6225761 L37.0578776,34.631472 L36.14768,34.6112454 Z M49.8006438,38.6363414 C50.1242712,38.5554345 50.410812,38.5520635 50.6602748,38.6262281 C50.9097377,38.7003927 51.1018886,38.8251222 51.2367333,39.0004204 C51.3715781,39.1757186 51.4322573,39.391467 51.4187728,39.647672 C51.4052884,39.9038771 51.290672,40.1735626 51.0749204,40.4567366 C50.8996222,40.6859727 50.6569053,40.8814946 50.3467623,41.0433083 C50.0366194,41.2051221 49.7467075,41.3332227 49.477018,41.427614 C48.8162787,41.6703346 48.1892599,41.838888 47.595943,41.9332793 C47.002626,42.0276706 46.4463997,42.0276706 45.9272474,41.9332793 C45.4080951,41.838888 44.9226612,41.643366 44.4709313,41.3467075 C44.0192013,41.0500491 43.5978178,40.6320366 43.206768,40.0926575 C42.9370784,39.7285767 42.7381854,39.3139353 42.6100829,38.8487208 C42.4819804,38.3835064 42.4111879,37.9081858 42.3977034,37.4227446 C42.384219,36.9373035 42.4246718,36.4586118 42.5190631,35.9866551 C42.6134545,35.5146984 42.7482972,35.0899438 42.9235954,34.7123785 C43.1528315,34.2404218 43.5169069,33.8089251 44.0158325,33.4178752 C44.5147581,33.0268254 45.0676133,32.7166871 45.6744147,32.487451 C46.2812162,32.258215 46.9014928,32.1267433 47.5352631,32.0930321 C48.1690335,32.0593209 48.7286309,32.1570819 49.214072,32.386318 C49.6186063,32.5751006 49.9658263,32.8481572 50.2557426,33.2054958 C50.5456588,33.5628344 50.7445519,33.9505073 50.8524277,34.3685261 C50.9603035,34.7865448 50.9704167,35.2079284 50.8827676,35.6326894 C50.7951185,36.0574504 50.575999,36.4451232 50.2254027,36.7957196 C49.8882908,37.1328315 49.5174732,37.4058881 49.112939,37.6148974 C48.7084047,37.8239068 48.2903922,38.0059445 47.8588889,38.161016 C47.4273857,38.3160875 46.9857757,38.4475591 46.5340458,38.5554349 C46.0823158,38.6633108 45.647448,38.7846692 45.2294293,38.919514 C45.5126033,39.2431414 45.8362258,39.4487766 46.2003067,39.5364257 C46.5643875,39.6240748 46.9453183,39.6409301 47.3431103,39.5869922 C47.7409024,39.5330543 48.1420595,39.421809 48.5465938,39.2532531 C48.9511281,39.0846971 49.3286877,38.8992884 49.6792841,38.6970212 L49.8006438,38.6363414 Z M45.714868,35.157364 C45.404725,35.3326621 45.1754924,35.5517816 45.0271631,35.8147289 C44.8788339,36.0776762 44.7709597,36.4451226 44.7035373,36.9170793 C45.0541337,36.8092035 45.4485487,36.6945872 45.8867942,36.5732269 C46.3250397,36.4518666 46.7396811,36.323766 47.1307309,36.1889212 C47.5217807,36.0540765 47.8521454,35.9057495 48.1218349,35.7439357 C48.3915244,35.582122 48.5263672,35.4068265 48.5263672,35.2180438 C48.5263672,35.110168 48.5095118,35.0056649 48.4758006,34.9045313 C48.4420895,34.8033977 48.371297,34.7326053 48.2634212,34.6921519 C47.8858559,34.5573071 47.4948119,34.5303386 47.0902777,34.6112454 C46.6857434,34.6921523 46.3486365,34.8067686 46.078947,34.9550978 L45.714868,35.157364 Z M53.4818874,35.157364 C53.4818874,35.2113019 53.4886295,35.1944465 53.502114,35.1067974 C53.5155984,35.0191483 53.5088563,34.8607081 53.4818874,34.631472 C53.2661357,34.5101117 53.0975823,34.3550426 52.976222,34.1662599 C52.8548617,33.9774773 52.7840693,33.7752132 52.7638426,33.5594615 C52.7436159,33.3437099 52.7840687,33.1380747 52.8852023,32.9425498 C52.9863358,32.7470249 53.1515182,32.5818426 53.3807543,32.4469978 C53.6908972,32.2716996 54.0313752,32.2379889 54.4021982,32.3458648 C54.7730213,32.4537406 55.0932728,32.6155519 55.3629624,32.8313035 C55.7000743,32.5750984 56.0506654,32.35935 56.4147462,32.1840519 C56.7788271,32.0087537 57.1496446,31.8907663 57.5272099,31.8300861 C57.9047753,31.769406 58.2890771,31.7795192 58.6801269,31.860426 C59.0711767,31.9413329 59.4554785,32.1098863 59.8330438,32.3660914 C60.0218265,32.4874517 60.1971221,32.6391497 60.3589358,32.8211902 C60.5207495,33.0032306 60.6218815,33.2088658 60.662335,33.4381019 C60.7297573,33.7752138 60.7027888,34.0684967 60.5814285,34.3179595 C60.4600682,34.5674223 60.2915148,34.74946 60.0757632,34.8640781 C59.8600116,34.9786961 59.6172946,35.0124068 59.3476051,34.9652111 C59.0779156,34.9180155 58.8217144,34.7730595 58.5789938,34.530339 C58.498087,34.4764011 58.4407788,34.4325772 58.4070676,34.398866 C58.3733564,34.3651548 58.302564,34.3213309 58.1946882,34.267393 C57.9789366,34.2134551 57.7665592,34.2269394 57.5575499,34.3078462 C57.3485405,34.3887531 57.1462764,34.4999983 56.9507515,34.6415853 C56.7552266,34.7831723 56.5731889,34.9382415 56.4046329,35.1067974 C56.236077,35.2753534 56.0843789,35.4270515 55.9495341,35.5618962 L55.9495341,40.7196825 C55.9495341,40.9219497 55.9090813,41.1174716 55.8281745,41.3062543 C55.7068142,41.6163973 55.5146633,41.8321456 55.251716,41.9535059 C54.9887687,42.0748662 54.7258254,42.1085769 54.4628781,42.054639 C54.1999308,42.0007011 53.9706981,41.8658583 53.7751732,41.6501067 C53.5796483,41.4343551 53.4818874,41.1579275 53.4818874,40.8208156 L53.4818874,35.157364 Z" id="twitter"></path>
                    <path d="M4.14740001,70.2368788 C4.10694658,70.5739907 3.96536171,70.8504183 3.72264114,71.0661699 C3.47992057,71.2819215 3.21697723,71.4201354 2.93380323,71.4808155 C2.65062924,71.5414956 2.39105696,71.511156 2.15507863,71.3897957 C1.9191003,71.2684355 1.79437077,71.0257185 1.78088629,70.6616377 C1.71346391,69.1109229 1.67975323,67.5029233 1.67975323,65.8375905 L1.67975323,60.871957 C1.46400161,60.7910501 1.30219033,60.6696917 1.19431452,60.507878 C1.08643871,60.3460642 1.02238841,60.1673976 1.00216169,59.9718727 C0.981934979,59.7763478 1.00553246,59.5774548 1.07295484,59.3751876 C1.14037722,59.1729205 1.24150927,58.9976249 1.37635403,58.8492957 C1.52468327,58.687482 1.72694738,58.539155 1.98315242,58.4043102 C2.23935747,58.2694654 2.51915615,58.1447359 2.82255686,58.0301179 C3.12595757,57.9154998 3.42598267,57.8177388 3.72264114,57.736832 C4.01929961,57.6559251 4.26875868,57.5952459 4.47102582,57.5547925 C5.32054781,57.3794943 6.1767992,57.3828653 7.03980567,57.5649058 C7.90281214,57.7469462 8.66130254,58.0739398 9.31529963,58.5458965 C9.96929672,59.0178532 10.4581016,59.6313876 10.7817291,60.3865183 C11.1053565,61.1416489 11.1390672,62.0046425 10.8828621,62.9755247 C10.8019553,63.2452143 10.7008232,63.5148997 10.5794629,63.7845893 C10.4581027,64.0542788 10.3165178,64.3037378 10.1547041,64.5329739 C9.92546797,64.8835703 9.6557825,65.1937086 9.34563955,65.4633981 C9.0354966,65.7330877 8.69838975,65.9825467 8.3343089,66.2117828 C8.59051394,66.4814723 8.83323087,66.7646421 9.06246697,67.0613006 C9.29170306,67.357959 9.54790426,67.6276445 9.83107826,67.8703651 C9.93895407,67.9647564 10.0973943,68.1130834 10.3064037,68.3153506 C10.515413,68.5176177 10.7176771,68.7333661 10.9132021,68.9626022 C11.108727,69.1918383 11.2806514,69.4176999 11.4289807,69.6401937 C11.5773099,69.8626876 11.6447313,70.0480963 11.6312468,70.1964256 C11.6177623,70.4526306 11.5469699,70.6852343 11.4188674,70.8942437 C11.2907649,71.1032531 11.1356957,71.2650644 10.9536553,71.3796824 C10.7716149,71.4943005 10.5727218,71.5516086 10.3569702,71.5516086 C10.1412186,71.5516086 9.9254702,71.4774451 9.70971858,71.3291159 C9.46699801,71.1403332 9.23776536,70.9178427 9.02201374,70.6616377 C8.80626212,70.4054326 8.59725588,70.1694578 8.39498874,69.9537062 C7.95000103,69.4682651 7.5151332,68.9794602 7.0903722,68.4872768 C6.6656112,67.9950934 6.23074337,67.5130306 5.78575566,67.0410739 C5.51606614,67.0950119 5.2430096,67.1320936 4.96657784,67.1523203 C4.69014608,67.172547 4.41708953,67.1961445 4.14740001,67.2231135 L4.14740001,70.0952925 L4.14740001,70.2368788 Z M7.76796373,60.4471981 C7.22858469,60.1235707 6.63864771,59.941533 5.9981351,59.9010796 C5.35762249,59.8606261 4.74071696,59.9482739 4.14740001,60.1640255 L4.14740001,64.7352401 C4.75420143,64.6947866 5.35088055,64.6172521 5.93745526,64.502634 C6.52402997,64.388016 7.06677199,64.1351858 7.5656976,63.744136 C7.83538713,63.5283844 8.05450658,63.2755543 8.22306253,62.985638 C8.39161848,62.6957218 8.49275053,62.3990678 8.52646172,62.0956671 C8.56017291,61.7922664 8.51972009,61.4956123 8.40510204,61.2056961 C8.290484,60.9157799 8.07810668,60.6629497 7.76796373,60.4471981 L7.76796373,60.4471981 Z M20.6320896,68.032178 C20.955717,67.9512711 21.2422578,67.9479001 21.4917206,68.0220647 C21.7411834,68.0962293 21.9333343,68.2209588 22.0681791,68.396257 C22.2030239,68.5715552 22.2637031,68.7873036 22.2502186,69.0435086 C22.2367342,69.2997137 22.1221178,69.5693992 21.9063662,69.8525732 C21.731068,70.0818092 21.4883511,70.2773312 21.1782081,70.4391449 C20.8680652,70.6009586 20.5781533,70.7290592 20.3084638,70.8234506 C19.6477245,71.0661711 19.0207057,71.2347246 18.4273888,71.3291159 C17.8340718,71.4235072 17.2778455,71.4235072 16.7586932,71.3291159 C16.2395409,71.2347246 15.754107,71.0392026 15.3023771,70.7425441 C14.8506471,70.4458856 14.4292636,70.0278732 14.0382138,69.4884941 C13.7685242,69.1244133 13.5696312,68.7097718 13.4415287,68.2445574 C13.3134262,67.779343 13.2426337,67.3040223 13.2291492,66.8185812 C13.2156648,66.3331401 13.2561176,65.8544483 13.3505089,65.3824917 C13.4449002,64.910535 13.579743,64.4857804 13.7550412,64.1082151 C13.9842773,63.6362584 14.3483527,63.2047616 14.8472783,62.8137118 C15.3462039,62.422662 15.8990591,62.1125237 16.5058605,61.8832876 C17.112662,61.6540515 17.7329386,61.5225799 18.3667089,61.4888687 C19.0004793,61.4551575 19.5600767,61.5529185 20.0455178,61.7821546 C20.4500521,61.9709372 20.7972721,62.2439938 21.0871884,62.6013324 C21.3771046,62.958671 21.5759977,63.3463439 21.6838735,63.7643626 C21.7917493,64.1823814 21.8018625,64.603765 21.7142134,65.028526 C21.6265643,65.453287 21.4074448,65.8409598 21.0568485,66.1915562 C20.7197366,66.5286681 20.348919,66.8017246 19.9443847,67.010734 C19.5398505,67.2197434 19.121838,67.4017811 18.6903347,67.5568526 C18.2588315,67.7119241 17.8172215,67.8433957 17.3654916,67.9512715 C16.9137616,68.0591473 16.4788938,68.1805058 16.0608751,68.3153506 C16.3440491,68.638978 16.6676716,68.8446132 17.0317525,68.9322623 C17.3958333,69.0199114 17.7767641,69.0367667 18.1745561,68.9828288 C18.5723482,68.9288909 18.9735053,68.8176456 19.3780396,68.6490897 C19.7825739,68.4805337 20.1601335,68.295125 20.5107299,68.0928578 L20.6320896,68.032178 Z M16.5463138,64.5532006 C16.2361708,64.7284987 16.0069382,64.9476182 15.8586089,65.2105655 C15.7102797,65.4735128 15.6024055,65.8409592 15.5349831,66.3129159 C15.8855795,66.2050401 16.2799945,66.0904237 16.71824,65.9690635 C17.1564855,65.8477032 17.5711269,65.7196026 17.9621767,65.5847578 C18.3532265,65.4499131 18.6835912,65.301586 18.9532807,65.1397723 C19.2229702,64.9779586 19.357813,64.8026631 19.357813,64.6138804 C19.357813,64.5060046 19.3409576,64.4015015 19.3072464,64.3003679 C19.2735352,64.1992343 19.2027428,64.1284419 19.094867,64.0879885 C18.7173017,63.9531437 18.3262577,63.9261751 17.9217235,64.007082 C17.5171892,64.0879889 17.1800823,64.2026052 16.9103928,64.3509344 L16.5463138,64.5532006 Z M33.0310033,69.1244151 C33.2602394,69.5154649 33.337774,69.866056 33.2636094,70.176199 C33.1894448,70.4863419 33.0377467,70.7189456 32.8085106,70.8740171 C32.5792745,71.0290886 32.2994758,71.0897678 31.9691062,71.0560566 C31.6387365,71.0223454 31.318485,70.8504209 31.008342,70.540278 C30.6847146,70.7695141 30.3476078,70.9481807 29.9970114,71.0762832 C29.646415,71.2043858 29.2755975,71.315631 28.8845477,71.4100224 C28.2777463,71.5448671 27.6945514,71.5347539 27.1349457,71.3796824 C26.5753399,71.224611 26.0797928,70.9717808 25.6482896,70.6211844 C25.2167864,70.2705881 24.8661953,69.8357202 24.5965057,69.3165679 C24.3268162,68.7974156 24.1784892,68.2344471 24.1515202,67.6276457 C24.1110668,66.9534219 24.1616328,66.3061768 24.3032198,65.6858909 C24.4448068,65.065605 24.6706684,64.4992655 24.9808114,63.9868554 C25.2909543,63.4744453 25.6988536,63.0362064 26.2045215,62.6721255 C26.7101893,62.3080447 27.3068684,62.0518435 27.9945767,61.9035143 C28.399111,61.8226074 28.8070103,61.7821546 29.2182868,61.7821546 C29.6295633,61.7821546 30.0374626,61.8158653 30.4419969,61.8832876 C30.4285124,61.5866292 30.4183992,61.2461512 30.411657,60.8618437 C30.4049147,60.4775361 30.4015437,60.1033475 30.4015437,59.7392667 C30.4015437,59.3751858 30.4150279,59.0481922 30.4419969,58.7582759 C30.4689658,58.4683597 30.5026765,58.2627245 30.5431299,58.1413642 C30.6375213,57.8986437 30.7824772,57.7132349 30.9780021,57.5851324 C31.173527,57.4570299 31.3791622,57.3896085 31.5949138,57.3828662 C31.8106654,57.376124 32.0230428,57.4300611 32.2320521,57.5446792 C32.4410615,57.6592972 32.6062439,57.8312217 32.7276042,58.0604578 C32.7545731,58.1278802 32.7882838,58.1919305 32.8287372,58.2526106 C32.8691906,58.3132907 32.8894171,58.3773411 32.8894171,58.4447634 C32.9029015,60.2112298 32.9062726,61.9574433 32.8995304,63.6834562 C32.8927881,65.4094691 32.8894171,67.1556826 32.8894171,68.922149 C32.943355,69.0030558 32.9905499,69.0704772 33.0310033,69.1244151 L33.0310033,69.1244151 Z M30.2195041,68.0119514 C30.2464731,67.9714979 30.2970391,67.9310451 30.3712037,67.8905917 C30.4453684,67.8501383 30.4824501,67.7962012 30.4824501,67.7287788 L30.4824501,66.0600832 C30.4824501,65.5139619 30.475708,64.9577356 30.4622235,64.3913876 C30.1385961,64.3239653 29.8014892,64.2835124 29.4508928,64.270028 C29.1002965,64.2565435 28.7598186,64.2902542 28.4294489,64.371161 C28.0990792,64.4520679 27.7956831,64.5869106 27.5192513,64.7756933 C27.2428195,64.964476 27.0237001,65.2341614 26.8618864,65.5847578 C26.7809795,65.8409629 26.706816,66.0971641 26.6393936,66.3533691 C26.5719713,66.6095742 26.5348895,66.8590332 26.5281473,67.1017538 C26.521405,67.3444744 26.5517447,67.5838202 26.619167,67.8197985 C26.6865894,68.0557769 26.8012057,68.2816385 26.9630195,68.4973901 C27.0169574,68.551328 27.0810077,68.6052651 27.1551723,68.659203 C27.2293369,68.7131409 27.3742928,68.8075308 27.5900445,68.9423756 C28.0889701,68.982829 28.5642907,68.935634 29.0160207,68.8007893 C29.4677506,68.6659445 29.8689078,68.4030012 30.2195041,68.0119514 L30.2195041,68.0119514 Z M44.4388131,69.1244151 C44.6680492,69.5154649 44.7455837,69.866056 44.6714191,70.176199 C44.5972545,70.4863419 44.4455564,70.7189456 44.2163203,70.8740171 C43.9870842,71.0290886 43.7072855,71.0897678 43.3769159,71.0560566 C43.0465462,71.0223454 42.7262947,70.8504209 42.4161518,70.540278 C42.0925243,70.7695141 41.7554175,70.9481807 41.4048211,71.0762832 C41.0542247,71.2043858 40.6834072,71.315631 40.2923574,71.4100224 C39.685556,71.5448671 39.1023611,71.5347539 38.5427554,71.3796824 C37.9831496,71.224611 37.4876026,70.9717808 37.0560993,70.6211844 C36.6245961,70.2705881 36.274005,69.8357202 36.0043155,69.3165679 C35.7346259,68.7974156 35.5862989,68.2344471 35.55933,67.6276457 C35.5188765,66.9534219 35.5694426,66.3061768 35.7110296,65.6858909 C35.8526166,65.065605 36.0784781,64.4992655 36.3886211,63.9868554 C36.698764,63.4744453 37.1066633,63.0362064 37.6123312,62.6721255 C38.117999,62.3080447 38.7146782,62.0518435 39.4023864,61.9035143 C39.8069207,61.8226074 40.21482,61.7821546 40.6260965,61.7821546 C41.037373,61.7821546 41.4452723,61.8158653 41.8498066,61.8832876 C41.8363221,61.5866292 41.8262089,61.2461512 41.8194667,60.8618437 C41.8127244,60.4775361 41.8093534,60.1033475 41.8093534,59.7392667 C41.8093534,59.3751858 41.8228377,59.0481922 41.8498066,58.7582759 C41.8767756,58.4683597 41.9104862,58.2627245 41.9509397,58.1413642 C42.045331,57.8986437 42.1902869,57.7132349 42.3858118,57.5851324 C42.5813368,57.4570299 42.7869719,57.3896085 43.0027235,57.3828662 C43.2184752,57.376124 43.4308525,57.4300611 43.6398619,57.5446792 C43.8488712,57.6592972 44.0140536,57.8312217 44.1354139,58.0604578 C44.1623828,58.1278802 44.1960935,58.1919305 44.2365469,58.2526106 C44.2770004,58.3132907 44.2972268,58.3773411 44.2972268,58.4447634 C44.3107113,60.2112298 44.3140823,61.9574433 44.3073401,63.6834562 C44.3005978,65.4094691 44.2972268,67.1556826 44.2972268,68.922149 C44.3511647,69.0030558 44.3983596,69.0704772 44.4388131,69.1244151 L44.4388131,69.1244151 Z M41.6273139,68.0119514 C41.6542828,67.9714979 41.7048488,67.9310451 41.7790135,67.8905917 C41.8531781,67.8501383 41.8902598,67.7962012 41.8902598,67.7287788 L41.8902598,66.0600832 C41.8902598,65.5139619 41.8835177,64.9577356 41.8700332,64.3913876 C41.5464058,64.3239653 41.2092989,64.2835124 40.8587026,64.270028 C40.5081062,64.2565435 40.1676283,64.2902542 39.8372586,64.371161 C39.5068889,64.4520679 39.2034928,64.5869106 38.927061,64.7756933 C38.6506293,64.964476 38.4315098,65.2341614 38.2696961,65.5847578 C38.1887893,65.8409629 38.1146257,66.0971641 38.0472034,66.3533691 C37.979781,66.6095742 37.9426992,66.8590332 37.935957,67.1017538 C37.9292148,67.3444744 37.9595544,67.5838202 38.0269768,67.8197985 C38.0943991,68.0557769 38.2090155,68.2816385 38.3708292,68.4973901 C38.4247671,68.551328 38.4888174,68.6052651 38.562982,68.659203 C38.6371466,68.7131409 38.7821026,68.8075308 38.9978542,68.9423756 C39.4967798,68.982829 39.9721004,68.935634 40.4238304,68.8007893 C40.8755603,68.6659445 41.2767175,68.4030012 41.6273139,68.0119514 L41.6273139,68.0119514 Z M49.35388,70.176199 C49.3269111,70.4458885 49.2325212,70.6852343 49.0707074,70.8942437 C48.9088937,71.1032531 48.723485,71.2549512 48.5144756,71.3493425 C48.3054662,71.4437338 48.0796046,71.4639603 47.836884,71.4100224 C47.5941635,71.3560844 47.3784151,71.2077574 47.1896324,70.9650369 C47.0817566,70.8301921 47.004222,70.678494 46.9570264,70.5099381 C46.9098307,70.3413821 46.8794911,70.1660866 46.8660066,69.9840461 C46.8525221,69.8020057 46.8491511,69.619968 46.8558933,69.4379276 C46.8626356,69.2558872 46.8660066,69.0907048 46.8660066,68.9423756 C46.8525221,68.1467915 46.8491511,67.3579615 46.8558933,66.5758618 C46.8626356,65.7937622 46.8592645,65.0049322 46.84578,64.2093481 C46.84578,63.8857207 46.8255536,63.5587271 46.7851002,63.2283574 C46.7446467,62.8979877 46.7648732,62.5709941 46.84578,62.2473667 C46.9132024,62.0046461 47.0311898,61.7956399 47.1997457,61.6203417 C47.3683017,61.4450435 47.5570815,61.323685 47.7660909,61.2562626 C47.9751003,61.1888403 48.1908487,61.1820981 48.4133425,61.236036 C48.6358364,61.2899739 48.8279873,61.4315588 48.989801,61.6607949 C49.2055526,61.9304844 49.3134268,62.1967988 49.3134268,62.4597461 L49.3134268,63.4205102 L49.3134268,64.7959199 C49.3134268,65.2543921 49.3201689,65.7061153 49.3336534,66.151103 C49.3471379,66.7983578 49.35388,67.445603 49.35388,68.0928578 L49.35388,70.0346127 L49.35388,70.176199 Z M46.6839671,58.6672562 C46.737905,58.1683306 46.9098295,57.8008841 47.1997457,57.5649058 C47.489662,57.3289274 47.7964292,57.2143111 48.1200566,57.2210533 C48.4436841,57.2277956 48.7437091,57.3525251 49.0201409,57.5952457 C49.2965727,57.8379663 49.4415286,58.1818152 49.4550131,58.6268029 C49.481982,59.0852751 49.3639946,59.4392373 49.1010474,59.6887001 C48.8381001,59.9381629 48.538075,60.0797478 48.2009631,60.113459 C47.8638512,60.1471702 47.5469707,60.0561513 47.2503123,59.8403997 C46.9536538,59.6246481 46.7716161,59.2807991 46.7041937,58.8088425 L46.6839671,58.6672562 Z M51.7810736,64.007082 C51.5113841,63.9396596 51.2787803,63.8250433 51.0832554,63.6632296 C50.8877305,63.5014159 50.7528878,63.312636 50.6787232,63.0968844 C50.6045586,62.8811328 50.6045586,62.6586423 50.6787232,62.4294062 C50.7528878,62.2001701 50.9180701,61.9911639 51.1742752,61.8023812 C51.3900268,61.6405675 51.6327437,61.5596618 51.9024333,61.5596618 L52.6912712,61.5596618 C52.6912712,61.4652705 52.684529,61.2596353 52.6710445,60.9427501 C52.6575601,60.6258649 52.654189,60.2786449 52.6609312,59.9010796 C52.6676735,59.5235142 52.691271,59.1628099 52.7317244,58.8189558 C52.7721778,58.4751016 52.8463413,58.2357558 52.9542171,58.100911 C53.2239067,57.7233457 53.5576424,57.5446791 53.9554345,57.5649058 C54.3532265,57.5851325 54.6802202,57.7772834 54.9364252,58.1413642 C54.9903631,58.2087866 55.0409291,58.2896923 55.0881248,58.3840836 C55.1353205,58.4784749 55.1589179,58.5661227 55.1589179,58.6470296 C55.1724024,59.1324707 55.1757735,59.6179046 55.1690313,60.1033457 C55.162289,60.5887868 55.1589179,61.0742207 55.1589179,61.5596618 L56.7568204,61.5596618 C56.9995409,61.5596618 57.2085472,61.6405675 57.3838454,61.8023812 C57.5591436,61.9641949 57.6838731,62.1529747 57.7580377,62.3687263 C57.8322023,62.584478 57.8524287,62.8069685 57.8187176,63.0362046 C57.7850064,63.2654407 57.6805032,63.4542205 57.505205,63.6025497 C57.1950621,63.8587548 56.8343578,63.9935975 56.4230813,64.007082 C56.0118047,64.0205665 55.5904212,64.0273086 55.1589179,64.0273086 C55.1589179,64.7689548 55.1555469,65.5105899 55.1488046,66.252236 C55.1420624,66.9938822 55.1454335,67.7355173 55.1589179,68.4771635 C55.1589179,68.8007909 55.1757733,69.1311556 55.2094845,69.4682675 C55.2431957,69.8053794 55.2195982,70.129002 55.1386913,70.4391449 C55.071269,70.6818655 54.9566526,70.8740164 54.7948389,71.0156034 C54.6330252,71.1571904 54.4509875,71.2448382 54.2487204,71.2785494 C54.0464532,71.3122606 53.837447,71.2987763 53.6216954,71.2380961 C53.4059437,71.177416 53.2036796,71.0661707 53.014897,70.904357 C52.9205056,70.8099657 52.8497132,70.6481544 52.8025175,70.4189183 C52.7553219,70.1896822 52.7249822,69.9469653 52.7114978,69.6907602 C52.6980133,69.3941018 52.6980133,69.0772213 52.7114978,68.7401094 L52.7114978,67.6883256 C52.7114978,67.2568223 52.7081267,66.8084702 52.7013845,66.3432558 C52.6946422,65.8780414 52.6912712,65.4364314 52.6912712,65.0184126 L52.6912712,64.0273086 L51.7810736,64.007082 Z" id="Reddit"></path>
                </g>
            </g>
            <g id="iphone" sketch:type="MSLayerGroup" transform="translate(62.500000, 234.000000) rotate(8.000000) translate(-62.500000, -234.000000) translate(0.000000, 127.000000)">
                <rect id="iphone-base" stroke-opacity="0.04" stroke="#000000" stroke-width="3" fill="#F2F2F2" filter="url(#filter-6)" sketch:type="MSShapeGroup" x="0.159586745" y="0" width="124.632707" height="213.999899" rx="8"></rect>
                <ellipse id="homescreen" fill-opacity="0.04" fill="#000000" sketch:type="MSShapeGroup" cx="62.801708" cy="199.712055" rx="6.79521452" ry="6.78781275"></ellipse>
                <ellipse id="camera" fill-opacity="0.04" fill="#000000" sketch:type="MSShapeGroup" cx="50" cy="14.9978215" rx="2.75" ry="2.74700453"></ellipse>
                <rect id="Rectangle-5" fill-opacity="0.04" fill="#000000" sketch:type="MSShapeGroup" x="56" y="13" width="23" height="4" rx="8"></rect>
                <rect id="inner-screen" stroke-opacity="0.04" stroke="#000000" stroke-width="2" fill="#FFFFFF" sketch:type="MSShapeGroup" x="6.84809614" y="26" width="111.764758" height="162.060606"></rect>
            </g>
        </g>
    </g>
</svg>