<?xml version="1.0" encoding="utf-8"?>
<!-- Generator: Adobe Illustrator 18.1.1, SVG Export Plug-In . SVG Version: 6.00 Build 0)  -->
<svg version="1.1" xmlns="http://www.w3.org/2000/svg" xmlns:xlink="http://www.w3.org/1999/xlink" x="0px" y="0px"
	 viewBox="0 0 220.5 228" enable-background="new 0 0 220.5 228" xml:space="preserve">
<g id="Ellipse_1_1_" enable-background="new    ">
	<g id="Ellipse_1">
		<g>
			<path fill="#FFFFFF" d="M87.4,9.4c20.9,0,40.6,8.1,55.3,22.9c26.4,26.4,30.5,68.1,9.6,99l-4.1,6.2l5.2,5.2l53.8,53.8
				c5.1,5.1,5.1,13.3,0,18.4c-2.5,2.5-5.7,3.8-9.2,3.8s-6.7-1.4-9.2-3.8l-54.1-54.1c-0.3-0.3-0.6-0.7-0.9-1l-4.6-5.7l-6.5,3.3
				c-10.9,5.5-23.1,8.4-35.4,8.4c-20.9,0-40.5-8.1-55.3-22.9c-30.5-30.5-30.5-80.2,0-110.7C46.8,17.5,66.5,9.4,87.4,9.4 M87.4,0.4
				c-22.3,0-44.7,8.5-61.7,25.6c-34.1,34.1-34.1,89.3,0,123.4c17,17,39.3,25.5,61.7,25.5c13.6,0,27.1-3.1,39.5-9.4
				c0.5,0.6,1,1.2,1.6,1.7l54.1,54.1c4.3,4.3,9.9,6.4,15.6,6.4c5.6,0,11.3-2.1,15.6-6.4c8.6-8.6,8.6-22.5,0-31.1l-53.8-53.8
				c22.9-33.9,19.3-80.4-10.7-110.4C132,8.9,109.7,0.4,87.4,0.4L87.4,0.4z"/>
		</g>
	</g>
</g>
<g id="Rectangle_1_1_" enable-background="new    ">
	<path fill-rule="evenodd" clip-rule="evenodd" fill="#FFFFFF" d="M202.1,209.5L202.1,209.5c-1.8,1.8-4.6,1.8-6.4,0l-69.9-69.9
		c-1.8-1.8-1.8-4.6,0-6.4l0,0c1.8-1.8,4.6-1.8,6.4,0l69.9,69.9C203.8,204.9,203.8,207.8,202.1,209.5z"/>
	
		<circle fill-rule="evenodd" clip-rule="evenodd" fill="none" stroke="#FFFFFF" stroke-width="9" stroke-linejoin="round" stroke-miterlimit="100" cx="87.4" cy="87.6" r="63.2"/>
</g>
</svg>
