<svg xmlns="http://www.w3.org/2000/svg" fill="#fff" viewBox="0 0 400 400" enable-background="new 0 0 400 400"><path d="M48.5 19.5h3c.6 0 1 .4 1 1v3c0 .6-.4 1-1 1h-3c-.6 0-1-.4-1-1v-3c0-.6.4-1 1-1zm67.4 9.3l-13.1-6.9c-.7-.4-1-1.3-.7-2.1.4-.8 1.2-1.1 2-.7l13.1 6.9c.7.4 1 1.3.7 2.1-.4.8-1.3 1.1-2 .7zm160.1-7.5l4.1 13.9c.2.7 1.1 1 1.7.5l9.8-9c.6-.5.4-1.5-.4-1.7l-13.9-4.9c-.7-.3-1.5.4-1.3 1.2zm4.5 2.1l7 2.5c.7.3.9 1.2.4 1.7l-4.9 4.5c-.6.5-1.5.3-1.7-.5l-2-7c-.4-.8.4-1.5 1.2-1.2zm91-7.4c-6.6 0-12 5.4-12 12s5.4 12 12 12 12-5.4 12-12-5.4-12-12-12zm0 21c-5 0-9-4-9-9s4-9 9-9 9 4 9 9-4 9-9 9zm-47.5 83v16c0 1.1.9 2 2 2h16c1.1 0 2-.9 2-2v-16c0-1.1-.9-2-2-2h-16c-1.1 0-2 .9-2 2zm17 15h-14v-14h14v14zm-81-39.5c1.4 0 2.5 1.1 2.5 2.5s-1.1 2.5-2.5 2.5-2.5-1.1-2.5-2.5 1.1-2.5 2.5-2.5zm-58.2-42.5h-7.7c-.7 0-1.4.4-1.7 1l-3.9 7c-.3.6-.3 1.3 0 1.9l3.9 7c.4.6 1 1 1.7 1h7.7c.7 0 1.4-.4 1.7-1l3.9-7c.3-.6.3-1.3 0-1.9l-3.9-7c-.3-.6-.9-1-1.7-1zm-.3 15h-6.9l-3.5-6 3.5-6h6.9l3.5 6-3.5 6zm-139.5-7c1.7 0 3 1.3 3 3s-1.3 3-3 3-3-1.3-3-3 1.3-3 3-3zm296 142.5c1.4 0 2.5 1.1 2.5 2.5s-1.1 2.5-2.5 2.5-2.5-1.1-2.5-2.5 1.1-2.5 2.5-2.5zm12 148.5v1c0 .6-.4 1-1 1h-10.4v11c0 .6-.4 1-1 1h-12.5v10c0 .6-.4 1-1 1h-1.1c-.6 0-1-.4-1-1v-12c0-.6.4-1 1-1h12.5v-11c0-.6.4-1 1-1h12.5c.6 0 1 .4 1 1zm-100-29h4c.5 0 1 .4 1 1v4c0 .5-.4 1-1 1h-4c-.5 0-1-.4-1-1v-4c0-.6.4-1 1-1zm-168 38h4c.5 0 1 .4 1 1v4c0 .5-.4 1-1 1h-4c-.5 0-1-.4-1-1v-4c0-.6.4-1 1-1zm-25.6-71.7l2.9-5.3-3.4-2c-.5-.3-.6-.9-.4-1.4l.4-.8c.3-.5.9-.7 1.4-.4l5 2.9c.5.3.6.9.4 1.3l-2.9 5.3 4.3 2.5c.5.3.6.9.4 1.3l-3.8 7.2c-.3.5-.9.7-1.4.4l-.8-.4c-.5-.3-.6-.9-.4-1.3l2.9-5.6-4.3-2.5c-.4-.1-.5-.7-.3-1.2zm103.1-9.8c1.7 0 3 1.3 3 3s-1.3 3-3 3-3-1.3-3-3 1.3-3 3-3zm-64.4-64.2l5.4 1.9-3.6 3.4-1.8-5.3m-3-2l3.4 10.1c.2.7 1.1.9 1.6.4l6.7-6.4c.5-.5.3-1.4-.3-1.6l-10.1-3.7c-.9-.3-1.6.4-1.3 1.2zm91.9-58.3h4.1c.5 0 1 .4 1 1v4.1c0 .5-.4 1-1 1h-4.1c-.5 0-1-.4-1-1v-4.1c0-.6.4-1 1-1zm-70-20.5l-13.3-8.3c-.5-.3-1.2-.3-1.7 0l-13.1 9c-.7.5-1 1.4-.8 2.2l4.2 15.1c.2.9 1 1.5 1.9 1.5h18.1c.9 0 1.7-.6 1.9-1.6l3.5-15.8c.4-.8 0-1.6-.7-2.1zm-5.4 16.4h-16.5l-3.8-13.6 11.6-8 11.8 7.4-3.1 14.2zm118.9 70.1c-.9 0-1.6-.7-1.5-1.5.2-7.1 6-20.5 26.5-20.5.9 0 1.5.7 1.5 1.5s-.7 1.5-1.5 1.5c-22.6 0-23.3 16.8-23.4 17.5 0 .9-.7 1.5-1.6 1.5zm-230.4-111c.4-.8 1.3-1.2 2-.9 6.6 2.9 16.9 13.6 9 32.9-.3.8-1.2 1.2-2 .9s-1.1-1.2-.8-2c8.7-21.3-6.8-28.5-7.4-28.8-.8-.4-1.1-1.3-.8-2.1zm176.5 267.6c-.7-.6-.8-1.5-.2-2.1 4.6-5.3 17.4-11.9 33.1.8.7.5.8 1.5.2 2.1s-1.5.7-2.1.2c-17.3-14.1-28.4-1.7-28.9-1.2-.6.7-1.5.8-2.1.2zm-142.9-149.6c-.8-.2-1.4-1-1.1-1.8l5.8-21c.2-.8 1.1-1.3 1.9-1.1.8.2 1.4 1 1.1 1.8l-5.8 21c-.2.8-1.1 1.3-1.9 1.1zm254.1 65c-6.7 0-13.1-2.7-17.8-7.5-7.9-8.1-7.9-21.3 0-29.5 3.1-3.2 7.3-5 11.8-5 4.5 0 8.6 1.8 11.8 5 5.3 5.4 5.3 14.2 0 19.6-2.1 2.2-4.9 3.3-7.9 3.3s-5.8-1.2-7.9-3.3c-3.6-3.7-3.6-9.6 0-13.3 1.5-1.5 3.4-2.3 5.4-2.3 2.1 0 4 .8 5.4 2.3 2.5 2.5 2.5 6.7 0 9.2-1 1.1-2.4 1.6-3.9 1.6s-2.8-.6-3.9-1.6c-1.8-1.8-1.8-4.8 0-6.7.6-.6 1.5-.6 2.1 0 .6.6.6 1.5 0 2.1-.7.7-.7 1.8 0 2.6.9 1 2.6 1 3.5 0 1.4-1.4 1.4-3.7 0-5.1-.9-.9-2.1-1.4-3.3-1.4-1.3 0-2.5.5-3.3 1.4-2.5 2.5-2.5 6.7 0 9.2 1.6 1.6 3.6 2.5 5.8 2.5s4.3-.9 5.8-2.5c4.2-4.3 4.2-11.2 0-15.5-2.6-2.6-6-4.1-9.7-4.1s-7.1 1.5-9.7 4.1c-6.8 7-6.8 18.4 0 25.4 4.2 4.3 9.8 6.7 15.7 6.7 5.9 0 11.5-2.4 15.7-6.7.6-.6 1.5-.6 2.1 0 .6.6.6 1.5 0 2.1-4.7 4.7-11 7.4-17.7 7.4zm-256.9 85h-19.8c-1.1 0-2.1-.9-2.1-2.1v-19.9c0-1.8 2.2-2.8 3.5-1.5l19.9 19.9c1.3 1.4.4 3.6-1.5 3.6zm-18.8-3.1h16.4l-16.4-16.4v16.4z"/></svg>