<?xml version="1.0" encoding="UTF-8" standalone="no"?>
<svg width="600px" height="250px" viewBox="0 0 600 250" version="1.1" xmlns="http://www.w3.org/2000/svg" xmlns:xlink="http://www.w3.org/1999/xlink" xmlns:sketch="http://www.bohemiancoding.com/sketch/ns">
    <!-- Generator: Sketch 3.5.2 (25235) - http://www.bohemiancoding.com/sketch -->
    <title>Artboard 2</title>
    <desc>Created with Sketch.</desc>
    <defs>
        <filter x="-50%" y="-50%" width="200%" height="200%" filterUnits="objectBoundingBox" id="filter-1">
            <feOffset dx="-5" dy="5" in="SourceAlpha" result="shadowOffsetOuter1"></feOffset>
            <feGaussianBlur stdDeviation="0" in="shadowOffsetOuter1" result="shadowBlurOuter1"></feGaussianBlur>
            <feColorMatrix values="0 0 0 0 0   0 0 0 0 0   0 0 0 0 0  0 0 0 0.028 0" in="shadowBlurOuter1" type="matrix" result="shadowMatrixOuter1"></feColorMatrix>
            <feMerge>
                <feMergeNode in="shadowMatrixOuter1"></feMergeNode>
                <feMergeNode in="SourceGraphic"></feMergeNode>
            </feMerge>
        </filter>
        <rect id="path-2" x="16.1151054" y="22.2775648" width="152.341885" height="193.996867"></rect>
        <filter x="-50%" y="-50%" width="200%" height="200%" filterUnits="objectBoundingBox" id="filter-4">
            <feOffset dx="-4" dy="4" in="SourceAlpha" result="shadowOffsetOuter1"></feOffset>
            <feGaussianBlur stdDeviation="0" in="shadowOffsetOuter1" result="shadowBlurOuter1"></feGaussianBlur>
            <feColorMatrix values="0 0 0 0 0   0 0 0 0 0   0 0 0 0 0  0 0 0 0.028 0" in="shadowBlurOuter1" type="matrix" result="shadowMatrixOuter1"></feColorMatrix>
            <feMerge>
                <feMergeNode in="shadowMatrixOuter1"></feMergeNode>
                <feMergeNode in="SourceGraphic"></feMergeNode>
            </feMerge>
        </filter>
        <filter x="-50%" y="-50%" width="200%" height="200%" filterUnits="objectBoundingBox" id="filter-5">
            <feOffset dx="-4" dy="4" in="SourceAlpha" result="shadowOffsetOuter1"></feOffset>
            <feGaussianBlur stdDeviation="0" in="shadowOffsetOuter1" result="shadowBlurOuter1"></feGaussianBlur>
            <feColorMatrix values="0 0 0 0 0   0 0 0 0 0   0 0 0 0 0  0 0 0 0.028 0" in="shadowBlurOuter1" type="matrix" result="shadowMatrixOuter1"></feColorMatrix>
            <feMerge>
                <feMergeNode in="shadowMatrixOuter1"></feMergeNode>
                <feMergeNode in="SourceGraphic"></feMergeNode>
            </feMerge>
        </filter>
        <filter x="-50%" y="-50%" width="200%" height="200%" filterUnits="objectBoundingBox" id="filter-6">
            <feOffset dx="-3" dy="3" in="SourceAlpha" result="shadowOffsetOuter1"></feOffset>
            <feGaussianBlur stdDeviation="0" in="shadowOffsetOuter1" result="shadowBlurOuter1"></feGaussianBlur>
            <feColorMatrix values="0 0 0 0 0   0 0 0 0 0   0 0 0 0 0  0 0 0 0.028 0" in="shadowBlurOuter1" type="matrix" result="shadowMatrixOuter1"></feColorMatrix>
            <feMerge>
                <feMergeNode in="shadowMatrixOuter1"></feMergeNode>
                <feMergeNode in="SourceGraphic"></feMergeNode>
            </feMerge>
        </filter>
    </defs>
    <g id="Page-1" stroke="none" stroke-width="1" fill="none" fill-rule="evenodd" sketch:type="MSPage">
        <g id="Artboard-2" sketch:type="MSArtboardGroup">
            <g id="ipad" sketch:type="MSLayerGroup" transform="translate(569.942007, 60.176631) rotate(-17.000000) translate(-569.942007, -60.176631) translate(478.267511, -60.468594)">
                <rect id="ipad-base" stroke-opacity="0.04" stroke="#000000" stroke-width="3" fill="#FAFAFA" filter="url(#filter-1)" sketch:type="MSShapeGroup" x="0.507573227" y="0.723172476" width="182.81025" height="240.079449" rx="8"></rect>
                <ellipse id="homescreen" fill-opacity="0.04" fill="#000000" sketch:type="MSShapeGroup" cx="92.294074" cy="227.783835" rx="5.57348501" ry="5.57484715"></ellipse>
                <mask id="mask-3" sketch:name="Mask" fill="white">
                    <use xlink:href="#path-2"></use>
                </mask>
                <use id="Mask" stroke-opacity="0.04" stroke="#000000" stroke-width="2" fill="#FFFFFF" sketch:type="MSShapeGroup" xlink:href="#path-2"></use>
            </g>
            <g id="paper" sketch:type="MSLayerGroup" transform="translate(161.686483, 292.614006) rotate(-6.000000) translate(-161.686483, -292.614006) translate(58.717440, 175.119549)">
                <path d="M0.56049588,32.1755501 L165.95957,0.0252269325 L205.377591,202.813364 L39.9785166,234.963687 L0.56049588,32.1755501 L0.56049588,32.1755501 Z" id="Rectangle-6" stroke-opacity="0.04" stroke="#000000" stroke-width="3" fill="#FAFAFA" filter="url(#filter-4)" sketch:type="MSShapeGroup"></path>
                <rect id="Rectangle-6" stroke-opacity="0.04" stroke="#000000" stroke-width="3" fill="#FFFFFF" filter="url(#filter-5)" sketch:type="MSShapeGroup" x="18.7216442" y="14.2026267" width="168.494798" height="206.583661"></rect>
                <g id="texts" transform="translate(35.506567, 35.506567)" fill="#F5F5F5" sketch:type="MSShapeGroup">
                    <path d="M2.6132666,8.79479236 C2.58715092,8.98630734 2.51751015,9.15170416 2.40434221,9.29098778 C2.29117427,9.4302714 2.16059783,9.52602745 2.01260898,9.57825881 C1.86462014,9.63049017 1.71228096,9.63049017 1.55558689,9.57825881 C1.39889281,9.52602745 1.26831638,9.40850866 1.16385366,9.22569891 C1.12032753,9.15605709 1.08550714,9.08206378 1.05939147,9.00371674 C1.03327579,8.92536971 1.02021814,8.84702384 1.02021814,8.76867681 L1.02021814,5.33448219 C0.854818843,5.33448219 0.704655941,5.28878044 0.569724932,5.19737556 C0.434793924,5.10597068 0.334685323,4.99280444 0.269396125,4.85787343 C0.204106928,4.72294242 0.180167915,4.57930834 0.197578367,4.42696688 C0.21498882,4.27462542 0.284629586,4.13316761 0.406502755,4.00258922 C0.493555018,3.90683173 0.587134798,3.84371978 0.6872449,3.81325149 C0.787355003,3.7827832 0.893992426,3.76319673 1.00716037,3.75449151 C0.998455142,3.48462949 0.991926321,3.21912407 0.987573707,2.95796728 C0.983221094,2.69681049 1.00280756,2.43565762 1.04633369,2.17450083 C1.09856505,1.76535519 1.22043639,1.41715136 1.41195137,1.12987889 C1.60346635,0.842606422 1.84068021,0.62062648 2.12360006,0.463932406 C2.40651992,0.307238332 2.72207964,0.215834826 3.0702887,0.189719147 C3.41849775,0.163603468 3.77975922,0.215834043 4.15408396,0.346412438 C4.31077803,0.398643796 4.46094093,0.463932014 4.60457717,0.542279051 C4.7482134,0.620626088 4.87661356,0.720734689 4.9897815,0.842607858 C5.06812854,0.929660121 5.12471166,1.031945 5.15953257,1.14946555 C5.19435348,1.26698611 5.2008823,1.3845049 5.17911923,1.50202546 C5.15735617,1.61954601 5.11383069,1.72835971 5.04854149,1.82846981 C4.98325229,1.92857991 4.88967251,2.0047495 4.76779934,2.05698086 C4.60240004,2.12662267 4.4391795,2.14403286 4.27813281,2.10921196 C4.11708612,2.07439105 3.95821813,2.01780793 3.80152405,1.93946089 C3.70576656,1.90463999 3.61436306,1.8698196 3.52731079,1.8349987 C3.44025853,1.80017779 3.34885502,1.77406251 3.25309753,1.75665205 C3.15734004,1.7392416 3.07028909,1.75229924 2.99194205,1.79582538 C2.91359501,1.83935151 2.84613052,1.8981109 2.78954655,1.97210533 C2.73296258,2.04609975 2.6894371,2.12879816 2.65896881,2.22020304 C2.62850052,2.31160791 2.6132666,2.40083515 2.6132666,2.48788741 C2.60456137,2.68810762 2.6023851,2.89050109 2.60673771,3.09507391 C2.61109032,3.29964673 2.6132666,3.50204021 2.6132666,3.70226041 C2.74384499,3.69355519 2.88312652,3.68485009 3.03111537,3.67614486 C3.17910422,3.66743964 3.32491457,3.66308709 3.46855081,3.66308709 C3.61218704,3.66308709 3.74493975,3.66743964 3.86681292,3.67614486 C3.98868609,3.68485009 4.08444214,3.70226028 4.15408396,3.72837596 C4.29336758,3.78060732 4.40653382,3.86112945 4.49358608,3.96994478 C4.58063835,4.07876011 4.63722147,4.19627891 4.66333715,4.32250469 C4.68945283,4.44873047 4.67857146,4.57713063 4.63069271,4.70770903 C4.58281397,4.83828742 4.49793929,4.95145367 4.37606612,5.04721116 C4.26289817,5.13426342 4.13232174,5.19519909 3.98433289,5.23001999 C3.83634404,5.2648409 3.67965232,5.28877991 3.51425302,5.30183775 C3.34885372,5.31489559 3.18780945,5.31924814 3.03111537,5.31489553 C2.8744213,5.31054291 2.73513977,5.30836664 2.6132666,5.30836664 L2.6132666,8.79479236 Z M10.7352022,8.55975242 C10.804844,8.81220398 10.7917863,9.02112628 10.6960288,9.18652558 C10.6002713,9.35192488 10.4675186,9.46291485 10.2977667,9.51949883 C10.1280148,9.5760828 9.94303153,9.56955397 9.74281132,9.49991216 C9.54259111,9.43027035 9.3684892,9.29098882 9.22050035,9.08206339 C8.97675401,9.26487314 8.73954015,9.3932733 8.50885166,9.46726773 C8.27816316,9.54126215 8.01483401,9.58261136 7.71885632,9.59131658 C7.27488977,9.60872704 6.87880792,9.55867274 6.53059886,9.44115218 C6.18238981,9.32363162 5.88859283,9.14735344 5.6491991,8.91231232 C5.40980538,8.67727121 5.23352719,8.38347423 5.12035925,8.03091256 C5.0071913,7.6783509 4.96801837,7.27138767 5.00283928,6.81001068 C5.02024973,6.6184957 5.05289384,6.43133614 5.10077259,6.24852638 C5.14865133,6.06571663 5.20305818,5.88726217 5.26399476,5.71315764 C5.33363657,5.52164266 5.4315689,5.31707291 5.55779468,5.09944225 C5.68402047,4.88181159 5.81242063,4.69465204 5.94299902,4.53795796 C6.41308125,3.96341302 7.00067521,3.54992097 7.70579854,3.29746941 C7.82767171,3.25394328 7.99306853,3.21477035 8.20199396,3.17994944 C8.41091939,3.14512854 8.62201797,3.12989462 8.83529601,3.13424723 C9.04857406,3.13859985 9.25314381,3.16689141 9.4490114,3.21912277 C9.64487899,3.27135412 9.79068935,3.36275763 9.88644684,3.49333602 C9.96479387,3.59779874 10.021377,3.68920225 10.0561979,3.76754928 C10.0910188,3.84589632 10.1106053,3.92859473 10.1149579,4.01564699 C10.1193105,4.10269926 10.1193105,4.19627904 10.1149579,4.29638914 C10.1106053,4.39649924 10.108429,4.52054686 10.108429,4.6685357 C10.108429,4.91228204 10.1062527,5.1494959 10.1019001,5.3801844 C10.0975475,5.6108729 10.0997238,5.84373421 10.108429,6.07877532 L10.108429,6.38563301 C10.108429,6.5118588 10.1127815,6.64461151 10.1214868,6.78389513 C10.130192,6.92317875 10.1410734,7.05593146 10.1541312,7.18215724 C10.167189,7.30838302 10.1867755,7.4106679 10.2128912,7.48901493 L10.7352022,8.55975242 Z M7.96695403,7.97215258 C8.06271152,7.911216 8.17152521,7.8437515 8.29339838,7.76975708 C8.41527155,7.69576266 8.52408525,7.61088797 8.61984274,7.51513048 C8.5414957,7.05375349 8.49579395,6.59238341 8.48273611,6.13100642 C8.46967827,5.66962942 8.47185454,5.2039068 8.489265,4.73382457 C8.09752981,4.80346639 7.74497343,4.97321575 7.43158528,5.24307777 C7.11819714,5.51293979 6.90056974,5.83067578 6.77869657,6.19629529 C6.72646521,6.34428413 6.68293974,6.49662331 6.64811883,6.65331738 C6.61329793,6.81001146 6.60024028,6.96235063 6.60894551,7.11033948 C6.61765073,7.31055969 6.66988131,7.47813278 6.7656388,7.61306379 C6.86139629,7.7479948 6.97673881,7.85027967 7.11166982,7.91992148 C7.24660082,7.98956329 7.3902349,8.02873623 7.54257636,8.03744145 C7.69491783,8.04614668 7.83637563,8.02438394 7.96695403,7.97215258 L7.96695403,7.97215258 Z M14.8222855,7.50207271 C15.0399161,7.36278909 15.2466622,7.30185342 15.4425298,7.31926387 C15.6383974,7.33667432 15.7994416,7.40413881 15.9256674,7.52165937 C16.0518932,7.63917993 16.121534,7.79587165 16.1345918,7.99173924 C16.1476496,8.18760683 16.0801851,8.39435286 15.9321963,8.61198352 C15.8364388,8.75997236 15.6993336,8.89490135 15.5208764,9.01677452 C15.3424193,9.13864769 15.1704936,9.23440374 15.0050943,9.30404555 C14.6220644,9.47815008 14.2346876,9.55649594 13.8429524,9.53908549 C13.4512172,9.52167503 13.0877795,9.42591898 12.7526283,9.25181445 C12.4174771,9.07770993 12.1280326,8.83614352 11.8842863,8.52710798 C11.64054,8.21807245 11.4751431,7.85898725 11.3880909,7.44984161 C11.2139863,6.66637124 11.2488067,5.91338046 11.4925531,5.19084667 C11.5883106,4.92968988 11.7036531,4.67724211 11.8385841,4.43349577 C11.9735151,4.18974943 12.1367356,3.96776949 12.3282506,3.76754928 C12.5197656,3.56732908 12.7330404,3.39105089 12.9680816,3.23870943 C13.2031227,3.08636797 13.459923,2.98408309 13.7384902,2.93185173 C13.9300052,2.89703083 14.1737479,2.8992071 14.4697256,2.93838062 C14.7657033,2.97755414 15.0551477,3.05372373 15.3380676,3.16689167 C15.6209874,3.28005961 15.8690827,3.42804624 16.0823607,3.61085599 C16.2956387,3.79366575 16.4153338,4.01129314 16.4414495,4.2637447 C16.4588599,4.40302832 16.4414498,4.53142849 16.3892184,4.64894904 C16.336987,4.7664696 16.2629937,4.86440193 16.1672362,4.94274896 C16.0714787,5.021096 15.9604888,5.07550285 15.834263,5.10597114 C15.7080372,5.13643943 15.579637,5.13426316 15.4490587,5.09944225 C15.2923646,5.05591612 15.168317,4.99715672 15.0769121,4.9231623 C14.9855072,4.84916788 14.8658121,4.75123555 14.7178233,4.62936238 C14.6481815,4.61195193 14.5828933,4.58366037 14.5219567,4.54448685 C14.4610201,4.50531333 14.3957319,4.49007941 14.3260901,4.49878464 L13.9735302,4.53795796 C13.9125936,4.57277887 13.8560105,4.6032467 13.8037791,4.62936238 C13.7515477,4.65547806 13.6993172,4.68159335 13.6470858,4.70770903 C13.3511081,5.00368672 13.1334807,5.33230409 12.9941971,5.69357098 C12.8549135,6.05483787 12.8200931,6.44439091 12.8897349,6.86224177 C12.933261,7.13210379 13.0181357,7.35408373 13.1443615,7.52818826 C13.2705873,7.70229278 13.4185739,7.82198785 13.5883258,7.88727705 C13.7580777,7.95256625 13.9452373,7.95909507 14.1498101,7.90686371 C14.3543829,7.85463235 14.5567764,7.73711356 14.7569966,7.55430381 L14.8222855,7.50207271 Z M21.8081947,7.38455274 C22.0171201,7.33232138 22.2021034,7.33014511 22.3631501,7.37802385 C22.5241968,7.4259026 22.6482444,7.50642473 22.7352967,7.61959268 C22.8223489,7.73276062 22.8615219,7.87204215 22.8528166,8.03744145 C22.8441114,8.20284075 22.7701181,8.37694267 22.6308345,8.55975242 C22.5176665,8.70774127 22.3609748,8.83396516 22.1607546,8.93842787 C21.9605344,9.04289059 21.7733748,9.125589 21.5992703,9.18652558 C21.1727142,9.34321966 20.7679273,9.45203335 20.3848973,9.51296994 C20.0018673,9.57390652 19.6427821,9.57390652 19.3076309,9.51296994 C18.9724797,9.45203335 18.6590963,9.32580947 18.3674712,9.13429449 C18.0758461,8.94277951 17.8038119,8.67292154 17.5513603,8.32471248 C17.3772558,8.08967137 17.2488556,7.82198968 17.166156,7.52165937 C17.0834563,7.22132906 17.0377546,6.91447444 17.0290493,6.60108629 C17.0203441,6.28769814 17.0464594,5.97866724 17.107396,5.67398432 C17.1683326,5.3693014 17.2553835,5.09509088 17.3685515,4.85134454 C17.5165403,4.54666162 17.7515779,4.26809856 18.0736713,4.01564699 C18.3957646,3.76319543 18.7526736,3.56297823 19.1444088,3.41498938 C19.5361439,3.26700053 19.9365783,3.18212585 20.345724,3.16036278 C20.7548696,3.13859972 21.1161311,3.20171166 21.4295192,3.34970051 C21.690676,3.47157368 21.9148323,3.64785187 22.1019946,3.87854036 C22.289157,4.10922886 22.4175571,4.35950036 22.487199,4.62936238 C22.5568408,4.8992244 22.5633696,5.17125864 22.5067856,5.44547327 C22.4502016,5.7196879 22.3087438,5.9699594 22.082408,6.19629529 C21.8647773,6.41392595 21.6253872,6.59020413 21.3642304,6.72513514 C21.1030736,6.86006615 20.8332156,6.97758494 20.5546484,7.07769505 C20.2760811,7.17780515 19.9909892,7.26267983 19.6993642,7.33232164 C19.4077391,7.40196345 19.1269997,7.48030932 18.8571377,7.56736158 C19.0399475,7.77628701 19.2488698,7.90903972 19.4839109,7.96562369 C19.718952,8.02220766 19.964871,8.03308903 20.2216751,7.99826813 C20.4784793,7.96344722 20.7374559,7.89163018 20.9986127,7.78281485 C21.2597695,7.67399953 21.5035122,7.55430446 21.7298481,7.42372606 L21.8081947,7.38455274 Z M19.1705243,5.13861558 C18.9703041,5.25178352 18.8223175,5.39324132 18.72656,5.56299324 C18.6308025,5.73274515 18.5611617,5.96995901 18.5176356,6.27464193 C18.7439715,6.20500012 18.9985955,6.13100681 19.2815154,6.05265977 C19.5644352,5.97431273 19.8321169,5.89161432 20.0845685,5.80456206 C20.3370201,5.7175098 20.5502949,5.62175374 20.7243994,5.51729103 C20.898504,5.41282831 20.9855549,5.29966207 20.9855549,5.1777889 C20.9855549,5.10814709 20.9746736,5.0406826 20.9529105,4.9753934 C20.9311474,4.9101042 20.8854457,4.86440245 20.8158039,4.83828677 C20.5720575,4.75123451 20.3196097,4.73382431 20.058453,4.78605567 C19.7972962,4.83828703 19.5796688,4.91228034 19.4055642,5.00803783 L19.1705243,5.13861558 Z M26.2739535,9.47379662 C26.0215019,9.48250184 25.7799355,9.46509165 25.549247,9.42156552 C25.3185585,9.37803939 25.0900497,9.30404607 24.8637139,9.19958336 C24.7505459,9.26051994 24.639556,9.29098778 24.5307406,9.29098778 C24.4219253,9.29098778 24.3218167,9.27357758 24.2304118,9.23875668 C24.1390069,9.20393577 24.0606611,9.16258657 23.9953719,9.11470782 C23.9300827,9.06682908 23.8843809,9.02983242 23.8582652,9.00371674 C23.7625078,8.86443312 23.7059246,8.7077414 23.6885142,8.53363687 C23.6711037,8.35953235 23.7276869,8.19413553 23.8582652,8.03744145 L23.8582652,1.3257455 C23.8582652,1.1255253 23.927906,0.957952205 24.0671896,0.823021197 C24.2064733,0.688090188 24.3675175,0.603215505 24.5503273,0.568394599 C24.733137,0.533573694 24.9094152,0.564041529 25.0791671,0.659799019 C25.2489191,0.755556509 25.3642616,0.929658424 25.4251982,1.18210999 C25.4600191,1.33880406 25.4883106,1.49331951 25.5100737,1.64566097 C25.5318368,1.79800243 25.5448944,1.97428062 25.549247,2.17450083 C25.5535996,2.37472103 25.5535996,2.60540607 25.549247,2.86656286 C25.5448944,3.12771965 25.534013,3.44980819 25.5166026,3.83283815 C25.5949496,3.78931202 25.6754717,3.74796282 25.7581714,3.7087893 C25.840871,3.66961578 25.9257457,3.62826658 26.012798,3.58474044 C26.2565443,3.4715725 26.5176972,3.40193174 26.7962644,3.37581606 C27.0748317,3.34970038 27.3468659,3.36493429 27.6123753,3.42151827 C27.8778847,3.47810224 28.12598,3.58256339 28.3566685,3.73490485 C28.587357,3.88724631 28.7766928,4.08528724 28.9246816,4.32903357 C29.1336071,4.67724263 29.2750649,5.08420585 29.3490593,5.54993546 C29.4230537,6.01566507 29.4230537,6.47703515 29.3490593,6.93405953 C29.2750649,7.39108391 29.1227257,7.81545733 28.8920372,8.20719252 C28.6613487,8.5989277 28.3370839,8.89054841 27.919233,9.08206339 C27.6580762,9.20393656 27.3903945,9.29751634 27.1161799,9.36280553 C26.8419653,9.42809473 26.5612259,9.46509139 26.2739535,9.47379662 L26.2739535,9.47379662 Z M25.4513137,6.13100642 L25.4513137,7.69793932 C25.4687242,7.71534977 25.4861343,7.72840742 25.5035448,7.73711264 C25.5209553,7.74581787 25.5383654,7.75887551 25.5557759,7.77628597 C26.3392463,8.03744276 27.0182437,7.85898829 27.5927887,7.24091722 C27.7233671,6.89270817 27.786479,6.56409081 27.7821264,6.25505527 C27.7777738,5.94601974 27.7190144,5.61304982 27.6058464,5.25613554 C27.5623203,5.15167283 27.4905033,5.08420834 27.3903932,5.05374004 C27.2902831,5.02327175 27.2010558,4.98627509 27.1227088,4.94274896 C26.9834252,4.91663328 26.8332623,4.94274857 26.6722156,5.02109561 C26.5111689,5.09944264 26.3566535,5.19737497 26.2086646,5.31489553 C26.0606758,5.43241608 25.9257468,5.56081625 25.8038736,5.70009987 C25.6820004,5.83938349 25.5862444,5.95690228 25.5166026,6.05265977 L25.4513137,6.13100642 Z M30.2304591,6.01348645 C30.2913957,5.76103488 30.3762703,5.51293966 30.4850857,5.26919332 C30.593901,5.02544698 30.7266537,4.79258567 30.8833478,4.5706024 C31.0400419,4.34861913 31.21632,4.14622565 31.4121876,3.9634159 C31.6080552,3.78060614 31.8191538,3.63261951 32.0454897,3.51945157 C32.4459301,3.31052614 32.8485408,3.20388872 33.2533338,3.1995361 C33.6581268,3.19518349 34.0346222,3.27570563 34.3828313,3.44110493 C34.7310403,3.60650423 35.0270136,3.85242318 35.2707599,4.17886917 C35.5145063,4.50531516 35.6755505,4.89486819 35.7538976,5.34753996 C35.7974237,5.64351766 35.8213627,5.924257 35.8257153,6.1897664 C35.8300679,6.4552758 35.8017764,6.73166259 35.7408398,7.01893506 C35.6537875,7.4280807 35.4775093,7.83504393 35.2119999,8.23983695 C34.9464905,8.64462998 34.6287545,8.98412871 34.2587824,9.25834334 C33.8888103,9.53255797 33.4840233,9.71318871 33.0444094,9.80024097 C32.6047955,9.88729323 32.1630119,9.81765247 31.7190453,9.59131658 C31.5188251,9.49555909 31.3381944,9.38456912 31.1771477,9.25834334 C31.016101,9.13211756 30.8702907,8.98195466 30.7397123,8.80785013 C30.5917234,8.61633515 30.4763809,8.41611795 30.3936812,8.20719252 C30.3109816,7.99826708 30.2435171,7.78063969 30.1912857,7.55430381 C30.1303492,7.31055747 30.1085864,7.06463851 30.1259969,6.81653956 C30.1434073,6.56844061 30.1738752,6.3268742 30.2174013,6.09183309 L30.2304591,6.01348645 Z M31.797392,6.28769971 C31.7712763,6.42698333 31.7495136,6.56408859 31.7321031,6.69901959 C31.7146926,6.8339506 31.7146926,6.97105586 31.7321031,7.11033948 C31.7582188,7.31055969 31.8126256,7.4933667 31.8953253,7.658766 C31.9780249,7.8241653 32.0868386,7.95474174 32.2217696,8.05049923 C32.3567006,8.14625672 32.5112161,8.19631102 32.6853206,8.20066363 C32.8594251,8.20501624 33.0465847,8.15060939 33.2468049,8.03744145 C33.4992565,7.8894526 33.7168839,7.66094384 33.8996936,7.35190831 C34.0825034,7.04287277 34.1956696,6.72078423 34.2391958,6.38563301 C34.2827219,6.0504818 34.2479015,5.7327458 34.1347336,5.4324155 C34.0215656,5.13208519 33.7995857,4.91663407 33.4687871,4.78605567 C33.2511564,4.78605567 33.0509392,4.82740488 32.8681295,4.91010453 C32.6853197,4.99280418 32.5264517,5.10161787 32.3915207,5.23654888 C32.2565897,5.37147989 32.1390709,5.53034789 32.0389608,5.71315764 C31.9388507,5.89596739 31.8583286,6.0874795 31.797392,6.28769971 L31.797392,6.28769971 Z M36.7071151,6.01348645 C36.7680517,5.76103488 36.8529263,5.51293966 36.9617417,5.26919332 C37.070557,5.02544698 37.2033097,4.79258567 37.3600038,4.5706024 C37.5166979,4.34861913 37.6929761,4.14622565 37.8888436,3.9634159 C38.0847112,3.78060614 38.2958098,3.63261951 38.5221457,3.51945157 C38.9225861,3.31052614 39.3251968,3.20388872 39.7299898,3.1995361 C40.1347828,3.19518349 40.5112782,3.27570563 40.8594873,3.44110493 C41.2076963,3.60650423 41.5036696,3.85242318 41.7474159,4.17886917 C41.9911623,4.50531516 42.1522065,4.89486819 42.2305536,5.34753996 C42.2740797,5.64351766 42.2980187,5.924257 42.3023713,6.1897664 C42.3067239,6.4552758 42.2784324,6.73166259 42.2174958,7.01893506 C42.1304435,7.4280807 41.9541653,7.83504393 41.6886559,8.23983695 C41.4231465,8.64462998 41.1054105,8.98412871 40.7354384,9.25834334 C40.3654663,9.53255797 39.9606794,9.71318871 39.5210654,9.80024097 C39.0814515,9.88729323 38.6396679,9.81765247 38.1957013,9.59131658 C37.9954811,9.49555909 37.8148504,9.38456912 37.6538037,9.25834334 C37.492757,9.13211756 37.3469467,8.98195466 37.2163683,8.80785013 C37.0683794,8.61633515 36.9530369,8.41611795 36.8703373,8.20719252 C36.7876376,7.99826708 36.7201731,7.78063969 36.6679418,7.55430381 C36.6070052,7.31055747 36.5852424,7.06463851 36.6026529,6.81653956 C36.6200633,6.56844061 36.6505312,6.3268742 36.6940573,6.09183309 L36.7071151,6.01348645 Z M38.274048,6.28769971 C38.2479323,6.42698333 38.2261696,6.56408859 38.2087591,6.69901959 C38.1913487,6.8339506 38.1913487,6.97105586 38.2087591,7.11033948 C38.2348748,7.31055969 38.2892816,7.4933667 38.3719813,7.658766 C38.4546809,7.8241653 38.5634946,7.95474174 38.6984256,8.05049923 C38.8333567,8.14625672 38.9878721,8.19631102 39.1619766,8.20066363 C39.3360812,8.20501624 39.5232407,8.15060939 39.7234609,8.03744145 C39.9759125,7.8894526 40.1935399,7.66094384 40.3763496,7.35190831 C40.5591594,7.04287277 40.6723256,6.72078423 40.7158518,6.38563301 C40.7593779,6.0504818 40.7245575,5.7327458 40.6113896,5.4324155 C40.4982216,5.13208519 40.2762417,4.91663407 39.9454431,4.78605567 C39.7278124,4.78605567 39.5275952,4.82740488 39.3447855,4.91010453 C39.1619757,4.99280418 39.0031077,5.10161787 38.8681767,5.23654888 C38.7332457,5.37147989 38.6157269,5.53034789 38.5156168,5.71315764 C38.4155067,5.89596739 38.3349846,6.0874795 38.274048,6.28769971 L38.274048,6.28769971 Z M44.6854151,8.71644571 C44.6331838,9.00371818 44.5200175,9.2104642 44.345913,9.33668999 C44.1718085,9.46291577 43.9911777,9.52167516 43.8040154,9.51296994 C43.616853,9.50426471 43.4514562,9.42809512 43.3078199,9.28445889 C43.1641837,9.14082265 43.0923667,8.94278173 43.0923667,8.69033016 L43.0923667,1.24739886 C43.0923667,1.11682046 43.1293633,0.997125397 43.2033578,0.888310068 C43.2773522,0.779494739 43.370932,0.690267507 43.4840999,0.620625696 C43.5972678,0.550983886 43.7213155,0.505282133 43.8562465,0.483519067 C43.9911775,0.461756001 44.1152251,0.466108549 44.228393,0.496576841 C44.341561,0.527045133 44.4394933,0.592333352 44.5221929,0.692443455 C44.6048926,0.792553557 44.6505944,0.929658816 44.6592996,1.10376334 C44.6854153,1.782771 44.6984729,2.3921277 44.6984729,2.93185173 C44.6984729,3.47157577 44.6941204,4.01564425 44.6854151,4.56407351 C44.8856353,4.41608466 45.0749712,4.26156921 45.2534283,4.10052253 C45.4318854,3.93947584 45.6081636,3.77190274 45.7822682,3.59779822 C45.9389622,3.43239892 46.0913014,3.24741563 46.2392903,3.04284281 C46.3872791,2.83826999 46.5744387,2.69681219 46.8007745,2.61846515 C46.9661738,2.56623379 47.1206893,2.5575287 47.2643255,2.5923496 C47.4079618,2.62717051 47.5298331,2.694635 47.6299432,2.7947451 C47.7300533,2.89485521 47.7975178,3.01672655 47.8323387,3.16036278 C47.8671596,3.30399902 47.8584545,3.45851447 47.8062232,3.62391377 C47.762697,3.74578694 47.6647647,3.89812611 47.5124232,4.08093586 C47.3600818,4.26374562 47.1903324,4.45090518 47.00317,4.64242016 C46.8160077,4.83393513 46.6310244,5.01021332 46.4482146,5.17126001 C46.2654049,5.3323067 46.1174183,5.45635431 46.0042503,5.54340658 C46.3089332,5.87420518 46.609259,6.20935136 46.9052367,6.54885519 C47.2012144,6.88835902 47.5015402,7.22785775 47.8062232,7.56736158 C47.9368016,7.71535043 48.0608492,7.84810314 48.1783697,7.96562369 C48.2958903,8.08314425 48.3981752,8.22460206 48.4852274,8.39000136 C48.5548692,8.52928498 48.576632,8.67291906 48.5505163,8.8209079 C48.5244006,8.96889675 48.4656412,9.09729691 48.3742363,9.20611224 C48.2828315,9.31492757 48.1696652,9.39544971 48.0347342,9.44768107 C47.8998032,9.49991243 47.7539928,9.50426497 47.5972988,9.46073884 C47.4493099,9.41721271 47.3056758,9.33669057 47.1663922,9.21917002 C47.0271086,9.10164946 46.8943559,8.9732493 46.7681301,8.83396568 C46.6419043,8.69468206 46.5222093,8.55104798 46.4090413,8.40305913 C46.2958734,8.25507028 46.1914122,8.12884639 46.0956547,8.02438368 C45.8606136,7.75452166 45.6277523,7.48683997 45.3970638,7.22133056 C45.1663753,6.95582116 44.9291615,6.69684456 44.6854151,6.444393 L44.6854151,8.71644571 Z" id="facebook"></path>
                    <path d="M0.772166343,22.344118 C0.598061816,22.3005919 0.447898915,22.2265986 0.321673133,22.1221359 C0.195447351,22.0176732 0.108396393,21.8958018 0.0605176483,21.7565182 C0.0126389035,21.6172346 0.0126389035,21.4736005 0.0605176483,21.3256117 C0.108396393,21.1776228 0.215033816,21.0426938 0.380433117,20.9208207 C0.519716738,20.8163579 0.676408462,20.7641274 0.850512988,20.7641274 L1.35976618,20.7641274 C1.35976618,20.7031908 1.35541364,20.5704381 1.34670841,20.3658652 C1.33800318,20.1612924 1.33582691,19.9371362 1.34017952,19.6933899 C1.34453213,19.4496435 1.35976605,19.2167822 1.38588173,18.994799 C1.41199741,18.7728157 1.45987544,18.6183002 1.52951725,18.531248 C1.70362177,18.2875016 1.91907289,18.1721591 2.17587707,18.185217 C2.43268125,18.1982748 2.64377982,18.3223224 2.80917912,18.5573635 C2.84400003,18.6008896 2.87664414,18.6531202 2.90711243,18.7140568 C2.93758072,18.7749934 2.95281464,18.8315765 2.95281464,18.8838079 C2.96151986,19.197196 2.96369614,19.5105795 2.95934352,19.8239676 C2.95499091,20.1373558 2.95281464,20.4507392 2.95281464,20.7641274 L3.9843788,20.7641274 C4.14107287,20.7641274 4.27600186,20.8163579 4.3891698,20.9208207 C4.50233774,21.0252834 4.58285988,21.1471547 4.63073862,21.2864383 C4.67861737,21.4257219 4.69167501,21.569356 4.66991195,21.7173449 C4.64814888,21.8653337 4.58068439,21.9872051 4.46751645,22.0829626 C4.26729624,22.2483619 4.03443493,22.3354128 3.76892553,22.344118 C3.50341612,22.3528233 3.23138188,22.3571758 2.95281464,22.3571758 C2.95281464,22.8359633 2.95063836,23.3147435 2.94628575,23.793531 C2.94193314,24.2723184 2.94410941,24.7510987 2.95281464,25.2298861 C2.95281464,25.4388116 2.96369601,25.6520864 2.98545907,25.8697171 C3.00722214,26.0873477 2.99198822,26.29627 2.93975686,26.4964902 C2.89623073,26.6531843 2.82223742,26.7772319 2.7177747,26.8686368 C2.61331199,26.9600417 2.49579319,27.0166248 2.3652148,27.0383879 C2.2346364,27.0601509 2.09970742,27.0514458 1.9604238,27.0122723 C1.82114018,26.9730988 1.69056374,26.9012818 1.56869057,26.796819 C1.50775399,26.7358825 1.46205223,26.6314213 1.43158394,26.4834325 C1.40111565,26.3354436 1.38152918,26.1787519 1.37282396,26.0133526 C1.36411873,25.8218376 1.36411873,25.6172679 1.37282396,25.3996372 L1.37282396,24.7206329 C1.37282396,24.4420657 1.37064768,24.1526213 1.36629507,23.852291 C1.36194246,23.5519607 1.35976618,23.2668688 1.35976618,22.9970068 L1.35976618,22.3571758 L0.772166343,22.344118 Z M12.1716032,21.0513984 C12.3021816,20.8772939 12.4523445,20.7575988 12.6220964,20.6923096 C12.7918484,20.6270204 12.9507164,20.6139628 13.0987052,20.6531363 C13.2466941,20.6923098 13.3729179,20.781537 13.4773807,20.9208207 C13.5818434,21.0601043 13.6384265,21.2472638 13.6471317,21.4823049 C13.6558369,21.6128833 13.6014301,21.8479209 13.4839095,22.1874247 C13.366389,22.5269286 13.2249312,22.9708885 13.0595319,23.5193177 C13.0508267,23.5541386 13.0355927,23.5976641 13.0138297,23.6498955 C12.9920666,23.7021268 12.9615988,23.7891778 12.9224253,23.9110509 C12.8832517,24.0329241 12.8266686,24.2026735 12.7526742,24.4203041 C12.6786798,24.6379348 12.5763949,24.9295555 12.4458165,25.295175 C12.3848799,25.4779848 12.3087103,25.6956122 12.2173054,25.9480637 C12.1259006,26.2005153 12.010558,26.4246715 11.8712744,26.6205391 C11.7319908,26.8164067 11.566594,26.9513357 11.375079,27.0253301 C11.183564,27.0993245 10.952879,27.0449177 10.683017,26.8621079 C10.5959647,26.8011713 10.5002087,26.6771237 10.3957459,26.4899614 C10.2912832,26.302799 10.1911746,26.1004055 10.0954171,25.8827749 C9.99965964,25.6651442 9.91478496,25.4583982 9.84079054,25.2625306 C9.76679611,25.066663 9.71674181,24.9382628 9.69062613,24.8773262 C9.62968955,24.7380426 9.56004878,24.5835272 9.48170175,24.4137753 C9.40335471,24.2440233 9.32936139,24.0720977 9.25971958,23.8979932 L9.18137294,24.0938598 C9.068205,24.3811323 8.95503875,24.6684004 8.84187081,24.9556729 C8.72870287,25.2429454 8.61553662,25.525861 8.50236868,25.8044282 C8.4414321,25.9524171 8.38484897,26.1134613 8.33261761,26.2875659 C8.28038626,26.4616704 8.20639294,26.6140096 8.11063545,26.744588 C8.03228842,26.8577559 7.93435609,26.938278 7.81683553,26.9861568 C7.69931498,27.0340355 7.57961991,27.053622 7.45774674,27.0449168 C7.33587357,27.0362115 7.22053105,27.0035674 7.11171573,26.9469835 C7.0029004,26.8903995 6.90932062,26.8098773 6.83097358,26.7054146 C6.70910041,26.5313101 6.61334436,26.3310929 6.54370255,26.104757 C6.47406074,25.8784211 6.40441997,25.6694988 6.33477816,25.4779839 C6.23902067,25.2081218 6.15196971,24.931735 6.07362268,24.6488152 C5.99527564,24.3658953 5.91257723,24.0938611 5.82552497,23.8327043 C5.78199883,23.6934207 5.72541571,23.5106137 5.6557739,23.2842778 C5.58613209,23.0579419 5.5186676,22.8250806 5.4533784,22.5856869 C5.3880892,22.3462931 5.33585863,22.1134318 5.29668511,21.8870959 C5.25751159,21.6607601 5.24227767,21.4736005 5.2509829,21.3256117 C5.25968813,21.1776228 5.30974243,21.0448701 5.4011473,20.9273495 C5.49255218,20.809829 5.60354215,20.722778 5.73412055,20.6661941 C5.86469894,20.6096101 6.0018042,20.5900236 6.14544043,20.6074341 C6.28907667,20.6248445 6.41747683,20.6901327 6.53064477,20.8033007 C6.69604407,20.9774052 6.79615267,21.1623885 6.83097358,21.3582561 C6.86579449,21.5541237 6.90496742,21.7652223 6.94849355,21.9915581 C7.01813536,22.3397672 7.09865749,22.6836185 7.19006237,23.0231223 C7.28146725,23.3626261 7.37939957,23.7021249 7.48386229,24.0416287 C7.5186832,23.9632817 7.55785613,23.8675256 7.60138226,23.7543577 C7.64490839,23.6411897 7.71454916,23.4714403 7.81030665,23.2451045 C7.88865368,23.0535895 7.96482327,22.8664299 8.03881769,22.6836202 C8.11281212,22.5008104 8.18462916,22.3180034 8.25427097,22.1351937 C8.30650233,22.0046153 8.3587329,21.8762151 8.41096426,21.7499893 C8.46319562,21.6237635 8.51542619,21.4997159 8.56765755,21.3778427 C8.62859414,21.2472644 8.71782137,21.1406269 8.83534192,21.0579273 C8.95286248,20.9752276 9.08126264,20.9229971 9.22054626,20.901234 C9.35982988,20.8794709 9.49475887,20.8925286 9.62533726,20.9404073 C9.75591566,20.9882861 9.86037681,21.0775133 9.93872384,21.2080917 C10.0518918,21.3821962 10.1389427,21.5758846 10.1998793,21.7891626 C10.2608159,22.0024407 10.3261041,22.2048342 10.3957459,22.3963491 C10.5176191,22.7097373 10.6373142,23.025297 10.7548347,23.3430378 C10.8723553,23.6607785 10.9964029,23.9719857 11.1269813,24.2766686 C11.3184963,23.754355 11.4882456,23.229873 11.6362345,22.7032068 C11.7842233,22.1765406 11.9452676,21.6520586 12.1193721,21.129745 L12.1716032,21.0513984 Z M16.4545532,26.3267392 C16.4371427,26.5008437 16.3762071,26.6553592 16.2717443,26.7902902 C16.1672816,26.9252212 16.0475866,27.0231535 15.9126555,27.0840901 C15.7777245,27.1450267 15.6319142,27.1580843 15.4752201,27.1232634 C15.318526,27.0884425 15.1792445,26.9926864 15.0573713,26.8359924 C14.9877295,26.7489401 14.9376752,26.6510078 14.9072069,26.5421925 C14.8767386,26.4333771 14.8571522,26.3202109 14.8484469,26.2026903 C14.8397417,26.0851698 14.8375654,25.967651 14.8419181,25.8501304 C14.8462707,25.7326099 14.8484469,25.6259724 14.8484469,25.5302149 C14.8397417,25.0166066 14.8375654,24.5073585 14.8419181,24.0024554 C14.8462707,23.4975522 14.8440944,22.9883041 14.8353892,22.4746958 C14.8353892,22.2657703 14.8223315,22.0546718 14.7962159,21.8413937 C14.7701002,21.6281157 14.7831578,21.4170171 14.8353892,21.2080917 C14.8789153,21.0513976 14.9550849,20.9164686 15.0639002,20.8033007 C15.1727156,20.6901327 15.2945869,20.6117869 15.4295179,20.5682607 C15.5644489,20.5247346 15.7037304,20.5203821 15.8473667,20.555203 C15.9910029,20.5900239 16.1150505,20.6814274 16.2195132,20.8294162 C16.3587969,21.0035208 16.4284376,21.1754464 16.4284376,21.3451983 L16.4284376,21.9654426 L16.4284376,22.8533712 C16.4284376,23.1493489 16.4327902,23.4409696 16.4414954,23.7282421 C16.4502006,24.146093 16.4545532,24.5639376 16.4545532,24.9817884 L16.4545532,26.2353348 L16.4545532,26.3267392 Z M14.730927,18.8968656 C14.7657479,18.5747723 14.8767379,18.3375584 15.0639002,18.185217 C15.2510626,18.0328755 15.4491035,17.9588822 15.658029,17.9632348 C15.8669544,17.9675874 16.0606428,18.0481095 16.2390999,18.2048036 C16.417557,18.3614977 16.5111368,18.5834776 16.519842,18.8707501 C16.5372525,19.1667278 16.4610829,19.3952366 16.291331,19.5562832 C16.1215791,19.7173299 15.9278907,19.8087334 15.71026,19.8304965 C15.4926294,19.8522596 15.2880596,19.7935002 15.0965447,19.6542166 C14.9050297,19.5149329 14.7875109,19.292953 14.7439848,18.9882701 L14.730927,18.8968656 Z M18.0214861,22.344118 C17.8473816,22.3005919 17.6972187,22.2265986 17.5709929,22.1221359 C17.4447671,22.0176732 17.3577161,21.8958018 17.3098374,21.7565182 C17.2619586,21.6172346 17.2619586,21.4736005 17.3098374,21.3256117 C17.3577161,21.1776228 17.4643536,21.0426938 17.6297529,20.9208207 C17.7690365,20.8163579 17.9257282,20.7641274 18.0998327,20.7641274 L18.6090859,20.7641274 C18.6090859,20.7031908 18.6047334,20.5704381 18.5960281,20.3658652 C18.5873229,20.1612924 18.5851466,19.9371362 18.5894993,19.6933899 C18.5938519,19.4496435 18.6090858,19.2167822 18.6352015,18.994799 C18.6613172,18.7728157 18.7091952,18.6183002 18.778837,18.531248 C18.9529415,18.2875016 19.1683926,18.1721591 19.4251968,18.185217 C19.682001,18.1982748 19.8930996,18.3223224 20.0584989,18.5573635 C20.0933198,18.6008896 20.1259639,18.6531202 20.1564322,18.7140568 C20.1869005,18.7749934 20.2021344,18.8315765 20.2021344,18.8838079 C20.2108396,19.197196 20.2130159,19.5105795 20.2086633,19.8239676 C20.2043107,20.1373558 20.2021344,20.4507392 20.2021344,20.7641274 L21.2336985,20.7641274 C21.3903926,20.7641274 21.5253216,20.8163579 21.6384895,20.9208207 C21.7516575,21.0252834 21.8321796,21.1471547 21.8800584,21.2864383 C21.9279371,21.4257219 21.9409948,21.569356 21.9192317,21.7173449 C21.8974686,21.8653337 21.8300041,21.9872051 21.7168362,22.0829626 C21.516616,22.2483619 21.2837547,22.3354128 21.0182453,22.344118 C20.7527359,22.3528233 20.4807016,22.3571758 20.2021344,22.3571758 C20.2021344,22.8359633 20.1999581,23.3147435 20.1956055,23.793531 C20.1912529,24.2723184 20.1934292,24.7510987 20.2021344,25.2298861 C20.2021344,25.4388116 20.2130157,25.6520864 20.2347788,25.8697171 C20.2565419,26.0873477 20.241308,26.29627 20.1890766,26.4964902 C20.1455505,26.6531843 20.0715572,26.7772319 19.9670944,26.8686368 C19.8626317,26.9600417 19.7451129,27.0166248 19.6145345,27.0383879 C19.4839561,27.0601509 19.3490272,27.0514458 19.2097435,27.0122723 C19.0704599,26.9730988 18.9398835,26.9012818 18.8180103,26.796819 C18.7570737,26.7358825 18.711372,26.6314213 18.6809037,26.4834325 C18.6504354,26.3354436 18.6308489,26.1787519 18.6221437,26.0133526 C18.6134385,25.8218376 18.6134385,25.6172679 18.6221437,25.3996372 L18.6221437,24.7206329 C18.6221437,24.4420657 18.6199674,24.1526213 18.6156148,23.852291 C18.6112622,23.5519607 18.6090859,23.2668688 18.6090859,22.9970068 L18.6090859,22.3571758 L18.0214861,22.344118 Z M23.3360002,22.344118 C23.1618957,22.3005919 23.0117328,22.2265986 22.885507,22.1221359 C22.7592812,22.0176732 22.6722302,21.8958018 22.6243515,21.7565182 C22.5764728,21.6172346 22.5764728,21.4736005 22.6243515,21.3256117 C22.6722302,21.1776228 22.7788677,21.0426938 22.944267,20.9208207 C23.0835506,20.8163579 23.2402423,20.7641274 23.4143468,20.7641274 L23.9236,20.7641274 C23.9236,20.7031908 23.9192475,20.5704381 23.9105423,20.3658652 C23.901837,20.1612924 23.8996608,19.9371362 23.9040134,19.6933899 C23.908366,19.4496435 23.9235999,19.2167822 23.9497156,18.994799 C23.9758313,18.7728157 24.0237093,18.6183002 24.0933511,18.531248 C24.2674556,18.2875016 24.4829067,18.1721591 24.7397109,18.185217 C24.9965151,18.1982748 25.2076137,18.3223224 25.373013,18.5573635 C25.4078339,18.6008896 25.440478,18.6531202 25.4709463,18.7140568 C25.5014146,18.7749934 25.5166485,18.8315765 25.5166485,18.8838079 C25.5253537,19.197196 25.52753,19.5105795 25.5231774,19.8239676 C25.5188248,20.1373558 25.5166485,20.4507392 25.5166485,20.7641274 L26.5482126,20.7641274 C26.7049067,20.7641274 26.8398357,20.8163579 26.9530036,20.9208207 C27.0661716,21.0252834 27.1466937,21.1471547 27.1945725,21.2864383 C27.2424512,21.4257219 27.2555089,21.569356 27.2337458,21.7173449 C27.2119827,21.8653337 27.1445182,21.9872051 27.0313503,22.0829626 C26.8311301,22.2483619 26.5982688,22.3354128 26.3327594,22.344118 C26.06725,22.3528233 25.7952157,22.3571758 25.5166485,22.3571758 C25.5166485,22.8359633 25.5144722,23.3147435 25.5101196,23.793531 C25.505767,24.2723184 25.5079433,24.7510987 25.5166485,25.2298861 C25.5166485,25.4388116 25.5275299,25.6520864 25.5492929,25.8697171 C25.571056,26.0873477 25.5558221,26.29627 25.5035907,26.4964902 C25.4600646,26.6531843 25.3860713,26.7772319 25.2816085,26.8686368 C25.1771458,26.9600417 25.059627,27.0166248 24.9290486,27.0383879 C24.7984702,27.0601509 24.6635413,27.0514458 24.5242576,27.0122723 C24.384974,26.9730988 24.2543976,26.9012818 24.1325244,26.796819 C24.0715878,26.7358825 24.0258861,26.6314213 23.9954178,26.4834325 C23.9649495,26.3354436 23.945363,26.1787519 23.9366578,26.0133526 C23.9279526,25.8218376 23.9279526,25.6172679 23.9366578,25.3996372 L23.9366578,24.7206329 C23.9366578,24.4420657 23.9344815,24.1526213 23.9301289,23.852291 C23.9257763,23.5519607 23.9236,23.2668688 23.9236,22.9970068 L23.9236,22.3571758 L23.3360002,22.344118 Z M32.1499978,24.9426151 C32.3589232,24.8903838 32.5439065,24.8882075 32.7049532,24.9360862 C32.8659999,24.983965 32.9900475,25.0644871 33.0770998,25.177655 C33.164152,25.290823 33.203325,25.4301045 33.1946197,25.5955038 C33.1859145,25.7609031 33.1119212,25.935005 32.9726376,26.1178148 C32.8594696,26.2658036 32.7027779,26.3920275 32.5025577,26.4964902 C32.3023375,26.600953 32.1151779,26.6836514 31.9410734,26.744588 C31.5145173,26.901282 31.1097304,27.0100957 30.7267004,27.0710323 C30.3436704,27.1319689 29.9845852,27.1319689 29.649434,27.0710323 C29.3142828,27.0100957 29.0008994,26.8838718 28.7092743,26.6923569 C28.4176492,26.5008419 28.145615,26.2309839 27.8931634,25.8827749 C27.7190589,25.6477337 27.5906587,25.380052 27.5079591,25.0797217 C27.4252594,24.7793914 27.3795576,24.4725368 27.3708524,24.1591487 C27.3621472,23.8457605 27.3882625,23.5367296 27.4491991,23.2320467 C27.5101357,22.9273638 27.5971866,22.6531532 27.7103546,22.4094069 C27.8583434,22.104724 28.093381,21.8261609 28.4154744,21.5737094 C28.7375677,21.3212578 29.0944767,21.1210406 29.4862118,20.9730517 C29.877947,20.8250629 30.2783814,20.7401882 30.6875271,20.7184251 C31.0966727,20.6966621 31.4579342,20.759774 31.7713223,20.9077629 C32.0324791,21.029636 32.2566353,21.2059142 32.4437977,21.4366027 C32.6309601,21.6672912 32.7593602,21.9175627 32.829002,22.1874247 C32.8986439,22.4572868 32.9051727,22.729321 32.8485887,23.0035356 C32.7920047,23.2777503 32.6505469,23.5280218 32.424211,23.7543577 C32.2065804,23.9719883 31.9671903,24.1482665 31.7060335,24.2831975 C31.4448767,24.4181285 31.1750187,24.5356473 30.8964515,24.6357574 C30.6178842,24.7358675 30.3327923,24.8207422 30.0411673,24.890384 C29.7495422,24.9600258 29.4688028,25.0383717 29.1989408,25.1254239 C29.3817506,25.3343494 29.5906729,25.4671021 29.825714,25.5236861 C30.0607551,25.58027 30.306674,25.5911514 30.5634782,25.5563305 C30.8202824,25.5215096 31.079259,25.4496926 31.3404158,25.3408772 C31.6015726,25.2320619 31.8453153,25.1123668 32.0716511,24.9817884 L32.1499978,24.9426151 Z M29.5123274,22.6966779 C29.3121072,22.8098459 29.1641206,22.9513037 29.0683631,23.1210556 C28.9726056,23.2908075 28.9029648,23.5280214 28.8594387,23.8327043 C29.0857746,23.7630625 29.3403986,23.6890692 29.6233185,23.6107221 C29.9062383,23.5323751 30.17392,23.4496767 30.4263716,23.3626244 C30.6788232,23.2755722 30.892098,23.1798161 31.0662025,23.0753534 C31.2403071,22.9708907 31.327358,22.8577244 31.327358,22.7358513 C31.327358,22.6662095 31.3164766,22.598745 31.2947136,22.5334558 C31.2729505,22.4681666 31.2272488,22.4224648 31.1576069,22.3963491 C30.9138606,22.3092969 30.6614128,22.2918867 30.400256,22.344118 C30.1390993,22.3963494 29.9214719,22.4703427 29.7473673,22.5661002 L29.5123274,22.6966779 Z M34.5265127,22.6966779 C34.5265127,22.7314988 34.5308652,22.7206175 34.5395705,22.6640335 C34.5482757,22.6074495 34.5439231,22.5051647 34.5265127,22.3571758 C34.3872291,22.2788288 34.2784154,22.1787202 34.2000683,22.056847 C34.1217213,21.9349738 34.0760195,21.8043974 34.0629617,21.6651138 C34.0499039,21.5258302 34.0760192,21.3930774 34.1413084,21.2668517 C34.2065976,21.1406259 34.313235,21.0339885 34.4612238,20.9469362 C34.661444,20.8337683 34.8812477,20.8120055 35.1206414,20.8816473 C35.3600351,20.9512891 35.5667812,21.0557503 35.7408857,21.1950339 C35.9585164,21.0296346 36.1848488,20.8903531 36.41989,20.7771851 C36.6549311,20.6640172 36.8943212,20.5878476 37.1380675,20.5486741 C37.3818139,20.5095006 37.6299091,20.5160294 37.8823607,20.5682607 C38.1348122,20.6204921 38.3829075,20.7293058 38.6266538,20.8947051 C38.748527,20.9730521 38.8616932,21.0709845 38.9661559,21.188505 C39.0706186,21.3060256 39.1359069,21.4387783 39.1620225,21.5867671 C39.2055487,21.8043978 39.1881385,21.9937336 39.1097914,22.1547803 C39.0314444,22.315827 38.9226307,22.4333458 38.7833471,22.5073402 C38.6440635,22.5813346 38.4873717,22.6030974 38.3132672,22.5726291 C38.1391627,22.5421608 37.9737659,22.448581 37.8170718,22.2918869 C37.7648404,22.257066 37.7278438,22.2287745 37.7060807,22.2070114 C37.6843177,22.1852483 37.6386159,22.1569568 37.5689741,22.1221359 C37.4296905,22.087315 37.2925852,22.0960201 37.1576542,22.1482514 C37.0227232,22.2004828 36.8921468,22.2722998 36.765921,22.3637047 C36.6396952,22.4551096 36.5221764,22.5552182 36.4133611,22.6640335 C36.3045457,22.7728488 36.2066134,22.8707812 36.1195611,22.9578334 L36.1195611,26.2875659 C36.1195611,26.4181442 36.0934459,26.5443681 36.0412145,26.6662413 C35.9628675,26.8664615 35.8388199,27.005743 35.6690679,27.0840901 C35.499316,27.1624371 35.3295667,27.1841999 35.1598147,27.149379 C34.9900628,27.114558 34.8420762,27.0275071 34.7158504,26.8882235 C34.5896246,26.7489398 34.5265127,26.5704854 34.5265127,26.3528547 L34.5265127,22.6966779 Z" id="twitter"></path>
                </g>
            </g>
            <g id="iphone" sketch:type="MSLayerGroup" transform="translate(41.959277, 60.054718) rotate(8.000000) translate(-41.959277, -60.054718) translate(-4.404397, -19.319892)">
                <rect id="iphone-base" stroke-opacity="0.04" stroke="#000000" stroke-width="3" fill="#FAFAFA" filter="url(#filter-6)" sketch:type="MSShapeGroup" x="0.118384446" y="0" width="92.4548836" height="158.749146" rx="8"></rect>
                <ellipse id="homescreen" fill-opacity="0.04" fill="#000000" sketch:type="MSShapeGroup" cx="46.587487" cy="148.150155" rx="5.04081781" ry="5.03532703"></ellipse>
                <rect id="inner-screen" stroke-opacity="0.04" stroke="#000000" stroke-width="2" fill="#FFFFFF" sketch:type="MSShapeGroup" x="5.08004638" y="19.2872885" width="82.9091974" height="120.219602"></rect>
            </g>
        </g>
    </g>
</svg>