<?xml version="1.0" encoding="UTF-8" standalone="no"?>
<svg width="600px" height="250px" viewBox="0 0 600 250" version="1.1" xmlns="http://www.w3.org/2000/svg" xmlns:xlink="http://www.w3.org/1999/xlink" xmlns:sketch="http://www.bohemiancoding.com/sketch/ns">
    <!-- Generator: Sketch 3.5.2 (25235) - http://www.bohemiancoding.com/sketch -->
    <title>Artboard 2</title>
    <desc>Created with Sketch.</desc>
    <defs>
        <rect id="path-1" x="13.3489304" y="17.9906391" width="126.192238" height="156.66558"></rect>
        <rect id="path-3" x="13.3489304" y="17.9906391" width="126.192238" height="156.66558"></rect>
    </defs>
    <g id="Page-1" stroke="none" stroke-width="1" fill="none" fill-rule="evenodd" sketch:type="MSPage">
        <g id="Artboard-2" sketch:type="MSArtboardGroup">
            <g id="plant" sketch:type="MSLayerGroup" transform="translate(347.000000, 137.000000)">
                <ellipse id="Oval-5" stroke="#F5F5F5" stroke-width="3" fill="#FFFFFF" sketch:type="MSShapeGroup" cx="56.2385536" cy="56.981886" rx="43.8687542" ry="44.1006349"></ellipse>
                <path d="M44.5963819,38.9657843 L39.3880453,28.016721" id="Line" stroke="#979797" stroke-linecap="square" sketch:type="MSShapeGroup"></path>
                <path d="M56.2825355,91.6832466 C75.5010215,91.6832466 91.0806827,76.2054938 91.0806827,57.112718 C91.0806827,38.0199422 75.5010215,22.5421893 56.2825355,22.5421893 C37.0640495,22.5421893 21.4843884,38.0199422 21.4843884,57.112718 C21.4843884,76.2054938 37.0640495,91.6832466 56.2825355,91.6832466 Z" id="Oval-6" stroke="#F5F5F5" stroke-width="3" fill="#FAFAFA" sketch:type="MSShapeGroup"></path>
                <ellipse id="Oval-17" fill="#FFFFFF" sketch:type="MSShapeGroup" cx="55.9896182" cy="57.321567" rx="25.3906408" ry="25.1184395"></ellipse>
                <g id="Group" transform="translate(16.628434, 17.101634)" stroke="#F5F5F5" stroke-width="2" fill="#FFFFFF" sketch:type="MSShapeGroup">
                    <path d="M22.3617487,30.4158105 C22.3617487,30.4158105 30.1778028,9.65401248e-08 39.0440208,0 C47.9102388,-9.65401248e-08 57.4766821,30.4158101 57.4766821,30.4158101 L22.3617487,30.4158105 Z" id="Path-41"></path>
                    <path d="M50.3093311,25.2856143 C50.3093311,25.2856143 80.7251415,33.1016684 80.7251416,41.9678864 C80.7251417,50.8341044 50.3093315,60.4005477 50.3093315,60.4005477 L50.3093311,25.2856143 L50.3093311,25.2856143 Z" id="Path-41"></path>
                    <path d="M30.5806142,60.4005477 C30.5806142,60.4005477 0.164803793,52.5844936 0.164803697,43.7182756 C0.1648036,34.8520576 30.5806138,25.2856143 30.5806138,25.2856143 L30.5806142,60.4005477 L30.5806142,60.4005477 Z" id="Path-41"></path>
                    <path d="M56.7990534,48.9365869 C56.7990534,48.9365869 48.9829993,79.3523973 40.1167813,79.3523974 C31.2505633,79.3523975 21.68412,48.9365873 21.68412,48.9365873 L56.7990534,48.9365869 L56.7990534,48.9365869 Z" id="Path-41"></path>
                </g>
                <g id="Group" transform="translate(57.214729, 56.849575) rotate(-315.000000) translate(-57.214729, -56.849575) translate(16.199078, 17.561759)" stroke="#F5F5F5" stroke-width="2" fill="#FFFFFF" sketch:type="MSShapeGroup">
                    <path d="M22.6758421,30.01044 C22.6758421,30.01044 30.6016806,9.52535028e-08 39.5924336,2.84217094e-14 C48.5831865,-9.5253446e-08 58.2840002,30.0104396 58.2840002,30.0104396 L22.6758421,30.01044 Z" id="Path-41"></path>
                    <path d="M48.6334131,57.2773046 C48.6334131,57.2773046 56.5592516,27.2668647 65.5500046,27.2668646 C74.5407575,27.2668645 84.2415712,57.2773042 84.2415712,57.2773042 L48.6334131,57.2773046 Z" id="Path-41" transform="translate(66.437492, 42.272085) rotate(-270.000000) translate(-66.437492, -42.272085) "></path>
                    <path d="M-2.2154449,57.2773046 C-2.2154449,57.2773046 5.71039359,27.2668647 14.7011466,27.2668646 C23.6918996,27.2668645 33.3927132,57.2773042 33.3927132,57.2773042 L-2.2154449,57.2773046 Z" id="Path-41" transform="translate(15.588634, 42.272085) rotate(-90.000000) translate(-15.588634, -42.272085) "></path>
                    <path d="M21.9886953,78.2948186 C21.9886953,78.2948186 29.9145338,48.2843787 38.9052868,48.2843786 C47.8960398,48.2843785 57.5968535,78.2948182 57.5968535,78.2948182 L21.9886953,78.2948186 Z" id="Path-41" transform="translate(39.792774, 63.289599) rotate(-180.000000) translate(-39.792774, -63.289599) "></path>
                </g>
                <g id="Group" transform="translate(28.265609, 28.523909)" stroke="#F5F5F5" stroke-width="2" fill="#FFFFFF" sketch:type="MSShapeGroup">
                    <path d="M15.9643513,21.7142536 C15.9643513,21.7142536 21.5443368,6.89212854e-08 27.8740483,0 C34.2037598,-6.89212854e-08 41.0333716,21.7142533 41.0333716,21.7142533 L15.9643513,21.7142536 Z" id="Path-41"></path>
                    <path d="M35.7988483,18.1861147 C35.7988483,18.1861147 57.748413,23.7062797 57.7484131,29.9681334 C57.7484131,36.229987 35.7988486,42.9863816 35.7988486,42.9863816 L35.7988483,18.1861147 L35.7988483,18.1861147 Z" id="Path-41"></path>
                    <path d="M21.9495647,42.9863816 C21.9495647,42.9863816 6.96681687e-08,37.4662166 3.55271368e-15,31.2043629 C-6.96681616e-08,24.9425093 21.9495645,18.1861147 21.9495645,18.1861147 L21.9495647,42.9863816 L21.9495647,42.9863816 Z" id="Path-41"></path>
                    <path d="M40.5496033,34.9364835 C40.5496033,34.9364835 34.9696179,56.650737 28.6399063,56.6507371 C22.3101948,56.6507372 15.4805831,34.9364837 15.4805831,34.9364837 L40.5496033,34.9364835 L40.5496033,34.9364835 Z" id="Path-41"></path>
                </g>
                <g id="Group" transform="translate(55.911165, 57.694447) rotate(-315.000000) translate(-55.911165, -57.694447) translate(26.939793, 29.355695)" stroke="#F5F5F5" stroke-width="2" fill="#FFFFFF" sketch:type="MSShapeGroup">
                    <path d="M15.9643513,21.7142536 C15.9643513,21.7142536 21.5443368,6.89212996e-08 27.8740483,1.42108547e-14 C34.2037598,-6.89212712e-08 41.0333716,21.7142533 41.0333716,21.7142533 L15.9643513,21.7142536 Z" id="Path-41"></path>
                    <path d="M35.7988483,18.1861147 C35.7988483,18.1861147 57.748413,23.7062797 57.7484131,29.9681334 C57.7484131,36.229987 35.7988486,42.9863816 35.7988486,42.9863816 L35.7988483,18.1861147 L35.7988483,18.1861147 Z" id="Path-41"></path>
                    <path d="M21.9495647,42.9863816 C21.9495647,42.9863816 6.96681687e-08,37.4662166 3.55271368e-15,31.2043629 C-6.96681616e-08,24.9425093 21.9495645,18.1861147 21.9495645,18.1861147 L21.9495647,42.9863816 L21.9495647,42.9863816 Z" id="Path-41"></path>
                    <path d="M40.5496033,34.9364835 C40.5496033,34.9364835 34.9696179,56.650737 28.6399063,56.6507371 C22.3101948,56.6507372 15.4805831,34.9364837 15.4805831,34.9364837 L40.5496033,34.9364835 L40.5496033,34.9364835 Z" id="Path-41"></path>
                </g>
                <path d="M56.3151392,73.4231308 C65.1243741,73.4231308 72.26567,66.3583935 72.26567,57.6435983 C72.26567,48.9288032 65.1243741,41.8640658 56.3151392,41.8640658 C47.5059043,41.8640658 40.3646084,48.9288032 40.3646084,57.6435983 C40.3646084,66.3583935 47.5059043,73.4231308 56.3151392,73.4231308 Z" id="Oval-18" stroke="#F5F5F5" stroke-width="2" fill="#FAFAFA" sketch:type="MSShapeGroup"></path>
            </g>
            <g id="ipad" sketch:type="MSLayerGroup" transform="translate(550.105854, 135.374241) rotate(-17.000000) translate(-550.105854, -135.374241) translate(474.167383, 37.945069)">
                <rect id="ipad-base" stroke="#F5F5F5" stroke-width="3" fill="#FFFFFF" sketch:type="MSShapeGroup" x="0.420447741" y="0.584010646" width="151.430676" height="193.88038" rx="8"></rect>
                <ellipse id="homescreen" fill="#F5F5F5" sketch:type="MSShapeGroup" cx="76.4516977" cy="183.95084" rx="4.61679036" ry="4.50206582"></ellipse>
                <ellipse id="homescreen" fill-opacity="0.04" fill="#000000" sketch:type="MSShapeGroup" cx="76.7598363" cy="10.19171" rx="1.84671614" ry="1.80082633"></ellipse>
                <mask id="mask-2" sketch:name="Mask" fill="white">
                    <use xlink:href="#path-1"></use>
                </mask>
                <use id="Mask" stroke="#F5F5F5" stroke-width="3" fill="#FAFAFA" sketch:type="MSShapeGroup" xlink:href="#path-1"></use>
                <path d="M42.1093543,179.018615 L-7.5046338,106.493739 L56.0982187,132.228411 L-1.45169973,6.40981396 L96.0180447,62.64037 L87.7887705,6.83134316 L143.899584,57.5251229 L148.169429,181.837666 L42.1093543,179.018615 Z" id="Path-37" fill="#FFFFFF" sketch:type="MSShapeGroup" mask="url(#mask-2)"></path>
                <path d="M101.888134,179.322942 L41.4010853,64.0981396 L116.976654,132.416407 L113.789527,52.3689214 L151.906079,132.416408 L136.513012,177.741614 L101.888134,179.322942 Z" id="Path-38" fill="#FAFAFA" sketch:type="MSShapeGroup" mask="url(#mask-2)"></path>
                <mask id="mask-4" sketch:name="Mask" fill="white">
                    <use xlink:href="#path-3"></use>
                </mask>
                <use id="Mask" stroke="#F5F5F5" stroke-width="3" sketch:type="MSShapeGroup" xlink:href="#path-3"></use>
            </g>
        </g>
    </g>
</svg>