<?xml version="1.0" encoding="UTF-8" standalone="no"?>
<svg width="600px" height="250px" viewBox="0 0 600 250" version="1.1" xmlns="http://www.w3.org/2000/svg" xmlns:xlink="http://www.w3.org/1999/xlink" xmlns:sketch="http://www.bohemiancoding.com/sketch/ns">
    <!-- Generator: Sketch 3.5.2 (25235) - http://www.bohemiancoding.com/sketch -->
    <title>Artboard 2</title>
    <desc>Created with Sketch.</desc>
    <defs>
        <rect id="path-1" x="10.3535453" y="13.9455447" width="97.8757862" height="121.440203"></rect>
        <rect id="path-3" x="10.3535453" y="13.9455447" width="97.8757862" height="121.440203"></rect>
    </defs>
    <g id="Page-1" stroke="none" stroke-width="1" fill="none" fill-rule="evenodd" sketch:type="MSPage">
        <g id="Artboard-2" sketch:type="MSArtboardGroup">
            <g id="plant" sketch:type="MSLayerGroup" transform="translate(418.000000, 67.000000)">
                <ellipse id="Oval-5" stroke="#F5F5F5" stroke-width="3" fill="#FFFFFF" sketch:type="MSShapeGroup" cx="43.6135269" cy="44.1899881" rx="34.0206312" ry="34.2004569"></ellipse>
                <path d="M34.5849133,30.218332 L30.5457994,21.7272304" id="Line" stroke="#979797" stroke-linecap="square" sketch:type="MSShapeGroup"></path>
                <path d="M43.6476353,71.1012195 C58.5517518,71.1012195 70.6339255,59.0980766 70.6339255,44.2914496 C70.6339255,29.4848225 58.5517518,17.4816797 43.6476353,17.4816797 C28.7435188,17.4816797 16.6613451,29.4848225 16.6613451,44.2914496 C16.6613451,59.0980766 28.7435188,71.1012195 43.6476353,71.1012195 Z" id="Oval-6" stroke="#F5F5F5" stroke-width="3" fill="#FAFAFA" sketch:type="MSShapeGroup"></path>
                <ellipse id="Oval-17" fill="#FFFFFF" sketch:type="MSShapeGroup" cx="43.4204751" cy="44.453414" rx="19.6906806" ry="19.4795859"></ellipse>
                <g id="Group" transform="translate(12.895507, 13.262478)" stroke="#F5F5F5" stroke-width="2" fill="#FFFFFF" sketch:type="MSShapeGroup">
                    <path d="M17.3417463,23.5877469 C17.3417463,23.5877469 23.4031697,7.48677741e-08 30.2790051,0 C37.1548405,-7.48677741e-08 44.5737072,23.5877466 44.5737072,23.5877466 L17.3417463,23.5877469 Z" id="Path-41"></path>
                    <path d="M37.1932521,45.0190854 C37.1932521,45.0190854 43.2546755,21.4313386 50.1305109,21.4313385 C57.0063463,21.4313385 64.425213,45.0190851 64.425213,45.0190851 L37.1932521,45.0190854 Z" id="Path-41" transform="translate(50.809233, 33.225212) rotate(-270.000000) translate(-50.809233, -33.225212) "></path>
                    <path d="M-1.69430019,45.0190854 C-1.69430019,45.0190854 4.36712324,21.4313386 11.2429586,21.4313385 C18.118794,21.4313385 25.5376607,45.0190851 25.5376607,45.0190851 L-1.69430019,45.0190854 Z" id="Path-41" transform="translate(11.921680, 33.225212) rotate(-90.000000) translate(-11.921680, -33.225212) "></path>
                    <path d="M16.8162388,61.53853 C16.8162388,61.53853 22.8776623,37.9507832 29.7534976,37.9507831 C36.629333,37.950783 44.0481997,61.5385297 44.0481997,61.5385297 L16.8162388,61.53853 Z" id="Path-41" transform="translate(30.432219, 49.744657) rotate(-180.000000) translate(-30.432219, -49.744657) "></path>
                </g>
                <g id="Group" transform="translate(44.370560, 44.087380) rotate(-315.000000) translate(-44.370560, -44.087380) translate(12.562537, 13.619310)" stroke="#F5F5F5" stroke-width="2" fill="#FFFFFF" sketch:type="MSShapeGroup">
                    <path d="M17.5853287,23.2733783 C17.5853287,23.2733783 23.7318909,7.3869986e-08 30.7043043,2.13162821e-14 C37.6767178,-7.38699434e-08 45.19979,23.273378 45.19979,23.273378 L17.5853287,23.2733783 Z" id="Path-41"></path>
                    <path d="M37.7156689,44.419088 C37.7156689,44.419088 43.8622312,21.1457098 50.8346446,21.1457098 C57.8070581,21.1457097 65.3301303,44.4190878 65.3301303,44.4190878 L37.7156689,44.419088 Z" id="Path-41" transform="translate(51.522900, 32.782399) rotate(-270.000000) translate(-51.522900, -32.782399) "></path>
                    <path d="M-1.71809835,44.419088 C-1.71809835,44.419088 4.4284639,21.1457098 11.4008773,21.1457098 C18.3732908,21.1457097 25.896363,44.4190878 25.896363,44.4190878 L-1.71809835,44.419088 Z" id="Path-41" transform="translate(12.089132, 32.782399) rotate(-90.000000) translate(-12.089132, -32.782399) "></path>
                    <path d="M17.0524399,60.7183677 C17.0524399,60.7183677 23.1990022,37.4449895 30.1714156,37.4449894 C37.143829,37.4449893 44.6669012,60.7183674 44.6669012,60.7183674 L17.0524399,60.7183677 Z" id="Path-41" transform="translate(30.859671, 49.081679) rotate(-180.000000) translate(-30.859671, -49.081679) "></path>
                </g>
                <g id="Group" transform="translate(21.920245, 22.120559)" stroke="#F5F5F5" stroke-width="2" fill="#FFFFFF" sketch:type="MSShapeGroup">
                    <path d="M12.3805045,16.8396078 C12.3805045,16.8396078 16.7078357,5.34491046e-08 21.6165864,0 C26.5253372,-5.34491046e-08 31.8217653,16.8396076 31.8217653,16.8396076 L12.3805045,16.8396078 Z" id="Path-41"></path>
                    <path d="M27.7623433,14.1035029 C27.7623433,14.1035029 44.784437,18.3844427 44.7844371,23.2405691 C44.7844371,28.0966954 27.7623436,33.336343 27.7623436,33.336343 L27.7623433,14.1035029 L27.7623433,14.1035029 Z" id="Path-41"></path>
                    <path d="M17.0220938,33.336343 C17.0220938,33.336343 5.40283187e-08,29.0554031 1.77635684e-15,24.1992767 C-5.40283151e-08,19.3431504 17.0220935,14.1035029 17.0220935,14.1035029 L17.0220938,33.336343 L17.0220938,33.336343 Z" id="Path-41"></path>
                    <path d="M31.4465985,27.0935713 C31.4465985,27.0935713 27.1192673,43.933179 22.2105165,43.9331791 C17.3017658,43.9331791 12.0053377,27.0935715 12.0053377,27.0935715 L31.4465985,27.0935713 L31.4465985,27.0935713 Z" id="Path-41"></path>
                </g>
                <g id="Group" transform="translate(43.359634, 44.742586) rotate(-315.000000) translate(-43.359634, -44.742586) translate(20.892062, 22.765617)" stroke="#F5F5F5" stroke-width="2" fill="#FFFFFF" sketch:type="MSShapeGroup">
                    <path d="M12.3805045,16.8396078 C12.3805045,16.8396078 16.7078357,5.34491153e-08 21.6165864,1.0658141e-14 C26.5253372,-5.34490939e-08 31.8217653,16.8396076 31.8217653,16.8396076 L12.3805045,16.8396078 Z" id="Path-41"></path>
                    <path d="M27.7623433,14.1035029 C27.7623433,14.1035029 44.784437,18.3844427 44.7844371,23.2405691 C44.7844371,28.0966954 27.7623436,33.336343 27.7623436,33.336343 L27.7623433,14.1035029 L27.7623433,14.1035029 Z" id="Path-41"></path>
                    <path d="M17.0220938,33.336343 C17.0220938,33.336343 5.40283187e-08,29.0554031 1.77635684e-15,24.1992767 C-5.40283151e-08,19.3431504 17.0220935,14.1035029 17.0220935,14.1035029 L17.0220938,33.336343 L17.0220938,33.336343 Z" id="Path-41"></path>
                    <path d="M31.4465985,27.0935713 C31.4465985,27.0935713 27.1192673,43.933179 22.2105165,43.9331791 C17.3017658,43.9331791 12.0053377,27.0935715 12.0053377,27.0935715 L31.4465985,27.0935713 L31.4465985,27.0935713 Z" id="Path-41"></path>
                </g>
                <path d="M43.6729197,56.940328 C50.5045642,56.940328 56.0427063,51.4615578 56.0427063,44.7031523 C56.0427063,37.9447467 50.5045642,32.4659765 43.6729197,32.4659765 C36.8412753,32.4659765 31.3031332,37.9447467 31.3031332,44.7031523 C31.3031332,51.4615578 36.8412753,56.940328 43.6729197,56.940328 Z" id="Oval-18" stroke="#F5F5F5" stroke-width="2" fill="#FAFAFA" sketch:type="MSShapeGroup"></path>
            </g>
            <g id="ipad" sketch:type="MSLayerGroup" transform="translate(571.405667, 59.443047) rotate(-17.000000) translate(-571.405667, -59.443047) translate(512.507135, -16.079722)">
                <rect id="ipad-base" stroke="#F5F5F5" stroke-width="3" fill="#FFFFFF" sketch:type="MSShapeGroup" x="0.326102887" y="0.452699125" width="117.450936" height="150.287463" rx="8"></rect>
                <ellipse id="homescreen" fill="#F5F5F5" sketch:type="MSShapeGroup" cx="59.2965949" cy="142.590525" rx="3.58082235" ry="3.48980155"></ellipse>
                <mask id="mask-2" sketch:name="Mask" fill="white">
                    <use xlink:href="#path-1"></use>
                </mask>
                <use id="Mask" stroke="#F5F5F5" stroke-width="3" fill="#FAFAFA" sketch:type="MSShapeGroup" xlink:href="#path-1"></use>
                <path d="M32.6603777,138.767282 L-5.82065857,82.5492187 L43.5102613,102.497594 L-1.12595081,4.96860321 L74.472422,48.5560338 L68.0897261,5.29535393 L111.609756,44.5909214 L114.921485,140.952486 L32.6603777,138.767282 Z" id="Path-37" fill="#FFFFFF" sketch:type="MSShapeGroup" mask="url(#mask-2)"></path>
                <path d="M79.0253141,139.003184 L32.1110381,49.6860321 L90.7280995,102.64332 L88.2561363,40.5940629 L117.819663,102.64332 L105.880667,137.777408 L79.0253141,139.003184 Z" id="Path-38" fill="#FAFAFA" sketch:type="MSShapeGroup" mask="url(#mask-2)"></path>
                <mask id="mask-4" sketch:name="Mask" fill="white">
                    <use xlink:href="#path-3"></use>
                </mask>
                <use id="Mask" stroke="#F5F5F5" stroke-width="3" sketch:type="MSShapeGroup" xlink:href="#path-3"></use>
            </g>
            <g id="Book" sketch:type="MSLayerGroup" transform="translate(100.253210, 227.001700) rotate(-6.000000) translate(-100.253210, -227.001700) translate(39.244880, 144.927496)">
                <path d="M-1.47082346e-12,2.49465665 L108.019797,2.49465665 C115.750051,2.49465665 122.01666,8.76855762 122.01666,16.4947069 L122.01666,124.70286 C122.01666,132.434874 115.755832,138.70291 108.019797,138.70291 L-1.47082346e-12,138.70291 L-1.47082346e-12,2.49465665 Z" id="Rectangle-16" stroke="#F5F5F5" stroke-width="3" fill="#FFFFFF" sketch:type="MSShapeGroup"></path>
                <path d="M11.3497689,3.3250371 L11.3497689,148.267801" id="Line" stroke="#F5F5F5" stroke-width="3" stroke-linecap="square" sketch:type="MSShapeGroup"></path>
                <rect id="Rectangle-16" stroke="#FFFFFF" stroke-width="2" fill="#F5F5F5" sketch:type="MSShapeGroup" x="94.3849957" y="0.457711597" width="12.6573298" height="163.649476" rx="3"></rect>
                <path d="M97.3252314,0.994765294 L97.3252314,145.937529" id="Line" stroke="#FFFFFF" stroke-width="2" stroke-linecap="square" sketch:type="MSShapeGroup"></path>
                <path d="M100.399271,0.811482313 L100.399271,145.754246" id="Line" stroke="#FFFFFF" stroke-width="2" stroke-linecap="square" sketch:type="MSShapeGroup"></path>
                <path d="M103.923909,1.17654999 L103.923909,146.119314" id="Line" stroke="#FFFFFF" stroke-width="2" stroke-linecap="square" sketch:type="MSShapeGroup"></path>
            </g>
        </g>
    </g>
</svg>