<svg xmlns="http://www.w3.org/2000/svg" viewBox="0 0 171.51 139.38"><path d="M164.13 21.08a64.366 64.366 0 0 1-18.47 5.062c6.63-3.984 11.73-10.28 14.13-17.793a64.396 64.396 0 0 1-20.42 7.803A32.077 32.077 0 0 0 115.9 6C98.148 6 83.74 20.394 83.74 38.15c0 2.523.284 4.982.84 7.33-26.73-1.343-50.42-14.138-66.284-33.594-2.77 4.743-4.35 10.272-4.35 16.166 0 11.15 5.675 20.993 14.302 26.76A31.955 31.955 0 0 1 13.68 50.79v.41c0 15.574 11.086 28.57 25.79 31.53a32.343 32.343 0 0 1-14.52.55c4.094 12.776 15.974 22.07 30.04 22.34-11.004 8.61-24.868 13.76-39.938 13.76a66.86 66.86 0 0 1-7.668-.45c14.23 9.12 31.137 14.45 49.296 14.45 59.15 0 91.49-49.004 91.49-91.5 0-1.39 0-2.78-.1-4.16a65.607 65.607 0 0 0 16.05-16.64z"/></svg>