<?xml version="1.0" encoding="utf-8"?>
<!-- Generator: Adobe Illustrator 18.1.1, SVG Export Plug-In . SVG Version: 6.00 Build 0)  -->
<svg version="1.1" id="Capa_1" xmlns="http://www.w3.org/2000/svg" xmlns:xlink="http://www.w3.org/1999/xlink" x="0px" y="0px"
	 viewBox="0 0 500 500" enable-background="new 0 0 500 500" xml:space="preserve">
<circle fill="#02b875" stroke="#02b875" stroke-width="14" stroke-miterlimit="10" cx="250" cy="250" r="235.8"/>
<g display="none">
	<g id="plus" display="inline">
		<g>
			<polygon fill="#666666" points="396.4,241.7 259.1,241.7 259.1,116.3 240.9,116.3 240.9,241.7 103.6,241.7 103.6,258.4 
				240.9,258.4 240.9,383.7 259.1,383.7 259.1,258.4 396.4,258.4 			"/>
		</g>
	</g>
</g>
<g display="none">
	<g display="inline">
		<path fill="#666666" d="M250,393c-4.6,0-8.3-3.7-8.3-8.3v-274c0-4.6,3.7-8.3,8.3-8.3s8.3,3.7,8.3,8.3v274
			C258.3,389.3,254.6,393,250,393z"/>
	</g>
	<g display="inline">
		<path fill="#666666" d="M250,397.6c-2.3,0-4.4-0.9-6-2.5L107,253.5c-3.2-3.3-3.1-8.6,0.2-11.7c3.3-3.2,8.5-3.1,11.7,0.2l131,135.4
			l131-135.4c3.2-3.3,8.4-3.4,11.7-0.2c3.3,3.2,3.4,8.4,0.2,11.7L256,395C254.4,396.7,252.3,397.6,250,397.6z"/>
	</g>
</g>
<g>
	<g id="plus_1_">
		<g>
			<polygon fill="#FFFFFF" points="310.1,248.2 380.2,144.3 365.1,134.1 294.9,238 285.6,251.8 215.5,355.7 230.6,365.9 
				300.7,262.1 			"/>
		</g>
	</g>
	<g>
		<g id="plus_2_">
			<g>
				<polygon fill="#FFFFFF" points="182,310.9 130,275.9 119.8,291 171.7,326.1 178.7,330.8 230.6,365.8 240.8,350.7 188.9,315.6 
									"/>
			</g>
		</g>
	</g>
</g>
</svg>
