<?xml version="1.0" encoding="iso-8859-1"?>
<!-- Generator: Adobe Illustrator 19.1.0, SVG Export Plug-In . SVG Version: 6.00 Build 0)  -->
<svg version="1.1" id="Capa_1" xmlns="http://www.w3.org/2000/svg" xmlns:xlink="http://www.w3.org/1999/xlink" x="0px" y="0px"
	 viewBox="0 0 31.547 31.547" style="enable-background:new 0 0 31.547 31.547;" xml:space="preserve">
<g>
	<g>
		<path style="fill:#010002;" d="M15.774,31.059c-0.49,0-0.888-0.397-0.888-0.888V0.888c0-0.49,0.398-0.888,0.888-0.888
			c0.49,0,0.888,0.398,0.888,0.888v29.283C16.661,30.661,16.264,31.059,15.774,31.059z"/>
	</g>
	<g>
		<path style="fill:#010002;" d="M15.774,31.547c-0.241,0-0.471-0.098-0.638-0.271L0.493,16.146
			c-0.34-0.352-0.331-0.914,0.021-1.255c0.353-0.341,0.913-0.331,1.255,0.021l14.004,14.471l14.004-14.471
			c0.342-0.351,0.903-0.361,1.255-0.021c0.352,0.341,0.361,0.903,0.021,1.255l-14.642,15.13
			C16.243,31.449,16.014,31.547,15.774,31.547z"/>
	</g>
</g>
<g>
</g>
<g>
</g>
<g>
</g>
<g>
</g>
<g>
</g>
<g>
</g>
<g>
</g>
<g>
</g>
<g>
</g>
<g>
</g>
<g>
</g>
<g>
</g>
<g>
</g>
<g>
</g>
<g>
</g>
</svg>
