<?xml version="1.0" encoding="utf-8"?>
<!-- Generator: Adobe Illustrator 18.1.1, SVG Export Plug-In . SVG Version: 6.00 Build 0)  -->
<svg version="1.1" id="Capa_1" xmlns="http://www.w3.org/2000/svg" xmlns:xlink="http://www.w3.org/1999/xlink" x="0px" y="0px"
	 viewBox="0 0 500 500" enable-background="new 0 0 500 500" xml:space="preserve">
<circle fill="#FFFFFF" stroke="#000000" stroke-width="14" stroke-miterlimit="10" cx="250" cy="250" r="235.8"/>
<g display="none">
	<g id="plus" display="inline">
		<g>
			<polygon points="396.4,241.7 259.1,241.7 259.1,116.3 240.9,116.3 240.9,241.7 103.6,241.7 103.6,258.4 240.9,258.4 240.9,383.7 
				259.1,383.7 259.1,258.4 396.4,258.4 			"/>
		</g>
	</g>
</g>
<g>
	<g>
		<path d="M250,393c-4.6,0-8.3-3.7-8.3-8.3v-274c0-4.6,3.7-8.3,8.3-8.3s8.3,3.7,8.3,8.3v274C258.3,389.3,254.6,393,250,393z"/>
	</g>
	<g>
		<path d="M250,397.6c-2.3,0-4.4-0.9-6-2.5L107,253.5c-3.2-3.3-3.1-8.6,0.2-11.7c3.3-3.2,8.5-3.1,11.7,0.2l131,135.4l131-135.4
			c3.2-3.3,8.4-3.4,11.7-0.2c3.3,3.2,3.4,8.4,0.2,11.7L256,395C254.4,396.7,252.3,397.6,250,397.6z"/>
	</g>
</g>
</svg>
