<?xml version="1.0" encoding="utf-8"?>
<!-- Generator: Adobe Illustrator 18.1.1, SVG Export Plug-In . SVG Version: 6.00 Build 0)  -->
<svg version="1.1" id="Ellipse_1_1_" xmlns="http://www.w3.org/2000/svg" xmlns:xlink="http://www.w3.org/1999/xlink" x="0px"
	 y="0px" viewBox="0 0 95.5 102" enable-background="new 0 0 95.5 102" xml:space="preserve">
<g id="Ellipse_1">
	<g>
		<path fill-rule="evenodd" clip-rule="evenodd" d="M45.2,35c1.2,0,2.2-1,2.2-2.2s-1-2.2-2.2-2.2s-2.2,1-2.2,2.2S44,35,45.2,35z
			 M30.2,35c1.2,0,2.2-1,2.2-2.2s-1-2.2-2.2-2.2s-2.2,1-2.2,2.2S29,35,30.2,35z M70.6,58c-1.2-1.2-3.1-1.2-4.3,0
			c-1.2,1.2-1.2,3.1,0,4.3l20.4,20.4c1.2,1.2,3.1,1.2,4.3,0s1.2-3.1,0-4.3L70.6,58z M94.3,96.6L68.1,70.4c-1.2-1.2-3.1-1.2-4.3,0
			c-1.2,1.2-1.2,3.1,0,4.3L90,101c1.2,1.2,3.1,1.2,4.3,0C95.5,99.8,95.5,97.8,94.3,96.6z M37.7,12.4c-14.2,0-25.8,11.6-25.8,25.8
			S23.4,64,37.7,64s25.8-11.6,25.8-25.8S51.9,12.4,37.7,12.4z M38,58c-10.9,0-19.7-8.8-19.7-19.7S27.1,18.5,38,18.5
			s19.7,8.8,19.7,19.7S48.9,58,38,58z M51.7,68.8c-0.2-0.2-0.5-0.4-0.8-0.6L50,67.4c-3.8,1.6-8,2.5-12.3,2.5
			c-17.8,0-32.2-14.4-32.2-32.2S19.9,5.5,37.7,5.5s32.2,14.4,32.2,32.2c0,4.4-0.9,8.5-2.5,12.3l3.9,3.9c0,0,0,0,0,0l15.3,15.3
			c1.2,1.2,3.1,1.2,4.3,0c1.2-1.2,1.2-3.1,0-4.3L73.7,47.7c0.9-3.2,1.4-6.7,1.4-10.2C75.1,16.8,58.3,0,37.5,0S0,16.8,0,37.5
			s16.8,37.5,37.5,37.5c3.6,0,7.1-0.5,10.4-1.5L75.3,101c1.2,1.2,3.1,1.2,4.3,0c1.2-1.2,1.2-3.1,0-4.3L51.7,68.8z M46.5,42.5h-17
			c-1.1,0-2,0.9-2,2s0.9,2,2,2h17c1.1,0,2-0.9,2-2S47.6,42.5,46.5,42.5z"/>
	</g>
</g>
</svg>
