<?xml version="1.0" encoding="utf-8"?>
<!-- Generator: Adobe Illustrator 18.1.1, SVG Export Plug-In . SVG Version: 6.00 Build 0)  -->
<svg version="1.1" id="Capa_1" xmlns="http://www.w3.org/2000/svg" xmlns:xlink="http://www.w3.org/1999/xlink" x="0px" y="0px"
	 viewBox="0 0 500 500" enable-background="new 0 0 500 500" xml:space="preserve">
<circle fill="#FFFFFF" stroke="#000000" stroke-width="14" stroke-miterlimit="10" cx="250" cy="250" r="235.8"/>
<g display="none">
	<g id="plus" display="inline">
		<g>
			<polygon points="396.4,241.7 259.1,241.7 259.1,116.3 240.9,116.3 240.9,241.7 103.6,241.7 103.6,258.4 240.9,258.4 240.9,383.7 
				259.1,383.7 259.1,258.4 396.4,258.4 			"/>
		</g>
	</g>
</g>
<g>
	<g>
		<path d="M249.8,107c4.6,0,8.3,3.7,8.3,8.3v274c0,4.6-3.7,8.3-8.3,8.3s-8.3-3.7-8.3-8.3v-274C241.5,110.7,245.2,107,249.8,107z"/>
	</g>
	<g>
		<path d="M249.8,102.4c2.3,0,4.4,0.9,6,2.5l137,141.6c3.2,3.3,3.1,8.6-0.2,11.7c-3.3,3.2-8.5,3.1-11.7-0.2l-131-135.4L118.9,258
			c-3.2,3.3-8.4,3.4-11.7,0.2c-3.3-3.2-3.4-8.4-0.2-11.7L243.8,105C245.4,103.3,247.5,102.4,249.8,102.4z"/>
	</g>
</g>
</svg>
